<svg xmlns="http://www.w3.org/2000/svg" viewBox="0 0 225.7 34.7"><defs><style>.cls-1{fill:#fcce0d;}.cls-2{fill:#fff;}</style></defs><title>Asset 1</title><g id="Layer_2" data-name="Layer 2"><g id="Layer_1-2" data-name="Layer 1"><g id="Layer_1-2-2" data-name="Layer 1-2"><path class="cls-1" d="M41.9,33.5v.3l-.1.2a.85.85,0,0,1-.8.7H.9A1.27,1.27,0,0,1,0,34v-.3A1.09,1.09,0,0,1,1.2,33H6V8.3A4.06,4.06,0,0,1,9,4.9l.6-.1a5.7,5.7,0,0,1,.1-1.3,3.83,3.83,0,0,1,3-3.3,1.2,1.2,0,0,1,.8-.2H32.3a3.26,3.26,0,0,1,1.4.4,3.92,3.92,0,0,1,2.1,3.8V33H41A.94.94,0,0,1,41.9,33.5ZM34.2,33V4.1a2.29,2.29,0,0,0-2.1-2.3H14a2.16,2.16,0,0,0-2.3,2.1V33ZM9.9,33V6.5a2.26,2.26,0,0,0-2,2.2V33Z"/><path class="cls-1" d="M21.2,21.7V24a2.51,2.51,0,0,1-2.5,2.3H17.2A2.54,2.54,0,0,1,15,24.2V20a2.3,2.3,0,0,1,1.4-2.2,1.88,1.88,0,0,1,.8-.2h2a2.38,2.38,0,0,1,2,2.4v1.7Zm-1.6,0h0V19.9c0-.4-.2-.7-.6-.7H17.6c-.4,0-.7.2-.7.6v3.7c0,.4.2.7.6.7h1.3a.73.73,0,0,0,.8-.8Z"/><path class="cls-1" d="M21.2,9.6v2.3a2.41,2.41,0,0,1-2.4,2.3H17.3A2.55,2.55,0,0,1,15,12V7.8a2.25,2.25,0,0,1,1.2-2.1,1.61,1.61,0,0,1,.9-.3,7.39,7.39,0,0,1,2.1,0,2.29,2.29,0,0,1,2,2.4V9.6Zm-1.6.2h0V8c0-.4-.2-.7-.6-.7H17.6a.76.76,0,0,0-.8.6v3.7a.76.76,0,0,0,.6.8h1.4c.5,0,.8-.2.8-.8Z"/><path class="cls-1" d="M30.4,9.8v2A2.43,2.43,0,0,1,28,14.2H26.6a2.58,2.58,0,0,1-2.4-2.4v-4a2.43,2.43,0,0,1,2.4-2.4h1.7a2.45,2.45,0,0,1,2.1,2.3V9.8Zm-1.7,0V8a.76.76,0,0,0-.6-.8H26.7a.67.67,0,0,0-.7.6v3.7c0,.4.2.7.6.7h1.3c.4.1.7-.2.8-.6V9.8Z"/><path class="cls-1" d="M30.4,21.8v2a2.39,2.39,0,0,1-2.5,2.4H26.5a2.48,2.48,0,0,1-2.2-2.4v-4a2.46,2.46,0,0,1,2.5-2.4h1.5a2.55,2.55,0,0,1,2.2,2.3,16.23,16.23,0,0,0-.1,2.1Zm-1.7-.1V19.9c0-.4-.2-.7-.6-.7H26.7c-.4,0-.7.2-.7.6v3.7c0,.4.2.7.6.7h1.3c.4.1.7-.2.8-.6V21.7Z"/></g><path class="cls-2" d="M46.7,11.5h3.8l5.4,9.4V11.5h2.9V25.8H55.5l-6-10.2V25.8H46.6V11.5Z"/><path class="cls-2" d="M66.5,26a5.38,5.38,0,0,1-2.2-.4,3.86,3.86,0,0,1-1.7-1.1,3.86,3.86,0,0,1-1.1-1.7,5.38,5.38,0,0,1-.4-2.2v-.2a5.09,5.09,0,0,1,.4-2.2,7.12,7.12,0,0,1,1.1-1.7,5,5,0,0,1,1.7-1.1,5.22,5.22,0,0,1,2.1-.4,5.82,5.82,0,0,1,1.9.3A4,4,0,0,1,71,17.9a6.05,6.05,0,0,1,.4,2.4v.8H63.9a2.82,2.82,0,0,0,.7,2,2.35,2.35,0,0,0,1.9.7,2.08,2.08,0,0,0,1.5-.4,1.52,1.52,0,0,0,.6-1.1h2.9a3.78,3.78,0,0,1-1.6,2.6A4.51,4.51,0,0,1,66.5,26Zm2.2-6.6a3,3,0,0,0-.7-1.8,2.43,2.43,0,0,0-3.2,0,3,3,0,0,0-.8,1.7h4.7Z"/><path class="cls-2" d="M72.5,15.3h3l1.9,7,2-7h2.4l1.8,7,2-7h2.8L85.1,25.8H82.3l-1.8-6.6-1.9,6.6H75.7Z"/><path class="cls-2" d="M94.1,26a5.39,5.39,0,0,1-3.3-.9,3.47,3.47,0,0,1-1.3-2.6h2.7a1.88,1.88,0,0,0,.5,1.1,1.81,1.81,0,0,0,1.4.4,1.74,1.74,0,0,0,1.2-.3.91.91,0,0,0,.4-.8,1.19,1.19,0,0,0-.5-.9,4.58,4.58,0,0,0-1.6-.4,8,8,0,0,1-1.8-.4,6.66,6.66,0,0,1-1.2-.6,2.76,2.76,0,0,1-.7-.9,5.07,5.07,0,0,1-.2-1.3,2.3,2.3,0,0,1,.4-1.4,2.19,2.19,0,0,1,.9-1,3.1,3.1,0,0,1,1.3-.6,6.1,6.1,0,0,1,3.1,0,3.1,3.1,0,0,1,1.3.6,2.84,2.84,0,0,1,.9,1,5.27,5.27,0,0,1,.5,1.5H95.5a1.35,1.35,0,0,0-.5-.9,2.17,2.17,0,0,0-2.2,0,.91.91,0,0,0-.4.8.67.67,0,0,0,.4.7,4,4,0,0,0,1.6.4,7.09,7.09,0,0,1,1.7.4,5.17,5.17,0,0,1,1.3.6,6.47,6.47,0,0,1,.8.9,2.9,2.9,0,0,1,.3,1.4,3.09,3.09,0,0,1-1.2,2.6A9.11,9.11,0,0,1,94.1,26Z"/><path class="cls-2" d="M115.6,22.9l2.4,2.9h-3.7l-1-1.3a5.37,5.37,0,0,1-1.6,1,5.27,5.27,0,0,1-2.3.4,6.45,6.45,0,0,1-2-.3,5.3,5.3,0,0,1-1.5-.8,4.12,4.12,0,0,1-1-1.3,4.84,4.84,0,0,1-.3-1.8,3.66,3.66,0,0,1,.9-2.5,6.9,6.9,0,0,1,2.3-1.7c-.3-.5-.6-1-.8-1.4a3,3,0,0,1-.2-1.3,3.34,3.34,0,0,1,.3-1.5,3.13,3.13,0,0,1,.9-1.1,5.39,5.39,0,0,1,1.3-.7,4.4,4.4,0,0,1,1.6-.2,7.72,7.72,0,0,1,1.5.2,2.28,2.28,0,0,1,1.2.6,4.3,4.3,0,0,1,.9,1,3.19,3.19,0,0,1,.3,1.4,3.14,3.14,0,0,1-.7,2.1,5.34,5.34,0,0,1-2.2,1.5l2.2,2.7,1.3-2.5H118Zm-5.9.7a4.25,4.25,0,0,0,1.1-.2,5.5,5.5,0,0,0,.9-.7L109,19.4a4.44,4.44,0,0,0-1.1.8,1.84,1.84,0,0,0-.4,1.3,1.89,1.89,0,0,0,.6,1.5A2.11,2.11,0,0,0,109.7,23.6Zm-.2-8.7a2.92,2.92,0,0,0,.2.9c.2.3.4.6.7,1a4.85,4.85,0,0,0,1.3-.9,1.59,1.59,0,0,0,.4-1.2,1.22,1.22,0,0,0-.3-.9,1.27,1.27,0,0,0-.9-.4,1.28,1.28,0,0,0-1,.4A1.25,1.25,0,0,0,109.5,14.9Z"/><path class="cls-2" d="M124.6,11.5h4.9a6.56,6.56,0,0,1,4,1.1,4.29,4.29,0,0,1,1.4,3.4v.1a4.21,4.21,0,0,1-.4,2,3.81,3.81,0,0,1-1.1,1.4,4.47,4.47,0,0,1-1.7.8,7.8,7.8,0,0,1-2.2.3h-1.8v5.2h-3.2V11.5Zm4.9,6.8a3,3,0,0,0,1.8-.5,2.11,2.11,0,0,0,.6-1.6v-.1a1.84,1.84,0,0,0-.6-1.6,3,3,0,0,0-1.8-.5h-1.6v4.4h1.6Z"/><path class="cls-2" d="M140.6,26a5.9,5.9,0,0,1-1.4-.2,4.13,4.13,0,0,1-1.1-.7,3.6,3.6,0,0,1-.8-1.2,4.84,4.84,0,0,1-.3-1.8V15.4h2.9v6.3a2.54,2.54,0,0,0,.5,1.6,1.62,1.62,0,0,0,1.4.5,2,2,0,0,0,1.5-.6,2.35,2.35,0,0,0,.6-1.7V15.4h2.9V25.9h-2.9V24.3a3.74,3.74,0,0,1-1.2,1.3A6.54,6.54,0,0,1,140.6,26Z"/><path class="cls-2" d="M155.8,26a4.65,4.65,0,0,1-2.1-.5,3.48,3.48,0,0,1-1.3-1.4v1.7h-2.9V10.6h2.9V17a4,4,0,0,1,1.3-1.3,3.61,3.61,0,0,1,2-.6,3.92,3.92,0,0,1,1.8.4,4.92,4.92,0,0,1,1.5,1,6.93,6.93,0,0,1,1,1.7,5.56,5.56,0,0,1,.4,2.3v.2A5.56,5.56,0,0,1,160,23a6.8,6.8,0,0,1-.9,1.7,4.18,4.18,0,0,1-1.5,1.1A9,9,0,0,1,155.8,26Zm-.8-2.3a2.2,2.2,0,0,0,1.8-.8,3.71,3.71,0,0,0,.6-2.3v-.2a3.29,3.29,0,0,0-.7-2.4,2.5,2.5,0,0,0-1.8-.8,2.2,2.2,0,0,0-1.8.8,3.29,3.29,0,0,0-.7,2.4v.2a3.44,3.44,0,0,0,.7,2.4A2.35,2.35,0,0,0,155,23.7Z"/><path class="cls-2" d="M162.6,10.6h2.9V25.8h-2.9Z"/><path class="cls-2" d="M169.9,13.9a1.66,1.66,0,0,1-1.2-.5,1.61,1.61,0,0,1-.5-1.1,1.61,1.61,0,0,1,.5-1.1,1.69,1.69,0,0,1,2.4,0,1.61,1.61,0,0,1,.5,1.1,1.61,1.61,0,0,1-.5,1.1A1.66,1.66,0,0,1,169.9,13.9Zm-1.4,1.4h2.9V25.8h-2.9Z"/><path class="cls-2" d="M178.1,26a5.39,5.39,0,0,1-3.3-.9,3.47,3.47,0,0,1-1.3-2.6h2.7a1.88,1.88,0,0,0,.5,1.1,1.7,1.7,0,0,0,1.3.4,1.74,1.74,0,0,0,1.2-.3.91.91,0,0,0,.4-.8,1,1,0,0,0-.5-.8,4.58,4.58,0,0,0-1.6-.4,8,8,0,0,1-1.8-.4,6.66,6.66,0,0,1-1.2-.6,5.5,5.5,0,0,1-.7-.9,5.07,5.07,0,0,1-.2-1.3,2.3,2.3,0,0,1,.4-1.4,2.19,2.19,0,0,1,.9-1,3.1,3.1,0,0,1,1.3-.6,6.5,6.5,0,0,1,3.2,0,3.1,3.1,0,0,1,1.3.6,2.84,2.84,0,0,1,.9,1,5.27,5.27,0,0,1,.5,1.5h-2.6a1.35,1.35,0,0,0-.5-.9,2.17,2.17,0,0,0-2.2,0,.91.91,0,0,0-.4.8.67.67,0,0,0,.4.7,4,4,0,0,0,1.6.4,7.09,7.09,0,0,1,1.7.4,3.1,3.1,0,0,1,1.3.6,6.47,6.47,0,0,1,.8.9,2.9,2.9,0,0,1,.3,1.4,3.09,3.09,0,0,1-1.2,2.6A12.63,12.63,0,0,1,178.1,26Z"/><path class="cls-2" d="M184.5,10.6h2.9V17a3.74,3.74,0,0,1,1.2-1.3,4.42,4.42,0,0,1,2.2-.6,5.9,5.9,0,0,1,1.4.2,2.59,2.59,0,0,1,1.1.7,4,4,0,0,1,.7,1.3,4.84,4.84,0,0,1,.3,1.8v6.7h-2.8V19.6a2.54,2.54,0,0,0-.4-1.6,1.62,1.62,0,0,0-1.4-.5,2.45,2.45,0,0,0-1.6.6,2.35,2.35,0,0,0-.6,1.7v6h-3Z"/><path class="cls-2" d="M198.6,13.9a1.66,1.66,0,0,1-1.2-.5,1.61,1.61,0,0,1-.5-1.1,1.61,1.61,0,0,1,.5-1.1,1.69,1.69,0,0,1,2.4,0,1.61,1.61,0,0,1,.5,1.1,1.61,1.61,0,0,1-.5,1.1A1.85,1.85,0,0,1,198.6,13.9Zm-1.4,1.4h2.9V25.8h-2.9Z"/><path class="cls-2" d="M202.9,15.3h2.9V17a3.74,3.74,0,0,1,1.2-1.3,4.42,4.42,0,0,1,2.2-.6,5.9,5.9,0,0,1,1.4.2,2.59,2.59,0,0,1,1.1.7,4,4,0,0,1,.7,1.3,4.84,4.84,0,0,1,.3,1.8v6.7h-2.9V19.6a2.54,2.54,0,0,0-.4-1.6,1.62,1.62,0,0,0-1.4-.5,2.45,2.45,0,0,0-1.6.6,2.35,2.35,0,0,0-.6,1.7v6h-2.9Z"/><path class="cls-2" d="M220.1,29.6a7.32,7.32,0,0,1-2.2-.3,7.74,7.74,0,0,1-1.6-.7,2.94,2.94,0,0,1-1-1.2,5.27,5.27,0,0,1-.5-1.5h2.9a1.64,1.64,0,0,0,.7,1.1,2.67,2.67,0,0,0,1.7.4,2.58,2.58,0,0,0,2-.7,2.74,2.74,0,0,0,.7-1.9V23.2a1.79,1.79,0,0,1-.5.7,5.55,5.55,0,0,1-.8.6,3,3,0,0,1-1,.4,4.25,4.25,0,0,1-1.1.2,5.66,5.66,0,0,1-1.8-.3,3.59,3.59,0,0,1-1.4-1,6.24,6.24,0,0,1-1-1.6,4.64,4.64,0,0,1-.4-2.1V20a5.22,5.22,0,0,1,.4-2.1,4.35,4.35,0,0,1,1-1.6,5,5,0,0,1,3.3-1.4,4.34,4.34,0,0,1,2.1.5,3.74,3.74,0,0,1,1.2,1.3V15.1h2.9V25a4.13,4.13,0,0,1-1.5,3.5A7.11,7.11,0,0,1,220.1,29.6Zm.2-6.5a2.56,2.56,0,0,0,1.9-.8,2.82,2.82,0,0,0,.7-2.1v-.1a2.82,2.82,0,0,0-.7-2.1,2.41,2.41,0,0,0-1.9-.8,2.56,2.56,0,0,0-1.9.8,3.3,3.3,0,0,0-.7,2.1v.2a2.82,2.82,0,0,0,.7,2.1A2.49,2.49,0,0,0,220.3,23.1Z"/></g></g></svg>