<?xml version="1.0" encoding="utf-8"?>
<!-- Generator: Adobe Illustrator 23.0.1, SVG Export Plug-In . SVG Version: 6.00 Build 0)  -->
<svg version="1.1" id="Layer_1" xmlns="http://www.w3.org/2000/svg" xmlns:xlink="http://www.w3.org/1999/xlink" x="0px" y="0px"
	 viewBox="0 0 319.6 98.8" style="enable-background:new 0 0 319.6 98.8;" xml:space="preserve">
<style type="text/css">
	.st0{fill:none;stroke:url(#SVGID_1_);stroke-miterlimit:10;}
	.st1{clip-path:url(#SVGID_3_);}
	.st2{clip-path:url(#SVGID_5_);}
	.st3{fill:#FF8292;}
	.st4{clip-path:url(#SVGID_7_);}
	.st5{clip-path:url(#SVGID_9_);}
	.st6{opacity:0;}
	.st7{clip-path:url(#SVGID_11_);}
	.st8{clip-path:url(#SVGID_13_);}
	.st9{clip-path:url(#SVGID_15_);}
	.st10{clip-path:url(#SVGID_17_);}
	.st11{clip-path:url(#SVGID_19_);}
	.st12{fill:#FFFFFF;}
	.st13{clip-path:url(#SVGID_21_);}
	.st14{clip-path:url(#SVGID_23_);}
	.st15{clip-path:url(#SVGID_25_);}
	.st16{clip-path:url(#SVGID_27_);}
	.st17{clip-path:url(#SVGID_29_);}
	.st18{clip-path:url(#SVGID_31_);}
	.st19{clip-path:url(#SVGID_33_);}
	.st20{clip-path:url(#SVGID_35_);}
	.st21{fill:none;}
	.st22{fill:#085AFF;}
</style>
<title>chat-icon-banking</title>
<g>
	<g id="Layer_1-2">
		
			<linearGradient id="SVGID_1_" gradientUnits="userSpaceOnUse" x1="243.1375" y1="65.8802" x2="313.0975" y2="65.8802" gradientTransform="matrix(1 0 0 -1 0 114.0005)">
			<stop  offset="0" style="stop-color:#F9CA87"/>
			<stop  offset="1" style="stop-color:#F06E7C"/>
		</linearGradient>
		<circle class="st0" cx="278.1" cy="48.1" r="34.5"/>
		<g>
			<defs>
				<polygon id="SVGID_2_" points="283.1,56.1 284.1,67.7 294.7,56.1 				"/>
			</defs>
			<clipPath id="SVGID_3_">
				<use xlink:href="#SVGID_2_"  style="overflow:visible;"/>
			</clipPath>
			<g class="st1">
				<g>
					<defs>
						<rect id="SVGID_4_" x="192.6" y="-119.9" width="171.6" height="351.3"/>
					</defs>
					<clipPath id="SVGID_5_">
						<use xlink:href="#SVGID_4_"  style="overflow:visible;"/>
					</clipPath>
					<g class="st2">
						<rect x="282.4" y="55.4" class="st3" width="13" height="13"/>
					</g>
				</g>
			</g>
		</g>
		<g>
			<defs>
				<path id="SVGID_6_" d="M267.5,31.4h21.6c3.1,0,5.7,2.5,5.7,5.7v17.6c0,3.1-2.5,5.7-5.7,5.7h-21.6c-3.1,0-5.7-2.5-5.7-5.7V37
					C261.8,33.9,264.3,31.4,267.5,31.4z"/>
			</defs>
			<clipPath id="SVGID_7_">
				<use xlink:href="#SVGID_6_"  style="overflow:visible;"/>
			</clipPath>
			<g class="st4">
				<g>
					<defs>
						<rect id="SVGID_8_" x="192.6" y="-119.9" width="171.6" height="351.3"/>
					</defs>
					<clipPath id="SVGID_9_">
						<use xlink:href="#SVGID_8_"  style="overflow:visible;"/>
					</clipPath>
					<g class="st5">
						<g class="st6">
							<g class="st6">
								<g>
									<defs>
										<rect id="SVGID_10_" x="192.6" y="-119.9" width="171.6" height="351.3"/>
									</defs>
									<clipPath id="SVGID_11_">
										<use xlink:href="#SVGID_10_"  style="overflow:visible;"/>
									</clipPath>
									<g class="st7">
										
											<image style="overflow:visible;enable-background:new    ;" width="716" height="1465" xlink:href="BEBF5E491EB08946.png"  transform="matrix(0.24 0 0 0.24 192.4375 -119.9998)">
										</image>
									</g>
								</g>
							</g>
						</g>
						<g>
							<defs>
								<rect id="SVGID_12_" x="192.6" y="-119.9" width="171.6" height="351.3"/>
							</defs>
							<clipPath id="SVGID_13_">
								<use xlink:href="#SVGID_12_"  style="overflow:visible;"/>
							</clipPath>
							<g class="st8">
								
									<image style="overflow:visible;enable-background:new    ;" width="716" height="1465" xlink:href="BEBF5E491EB0894A.png"  transform="matrix(0.24 0 0 0.24 192.4375 -119.9998)">
								</image>
							</g>
						</g>
					</g>
				</g>
			</g>
		</g>
		<g>
			<defs>
				<path id="SVGID_14_" d="M271.8,44.8c-0.6,0-1.1,0.5-1.1,1.1c0,0.6,0.5,1.1,1.1,1.1h13.5c0.6,0,1.1-0.5,1.1-1.1
					c0-0.6-0.5-1.1-1.1-1.1c0,0,0,0,0,0H271.8z M271.8,45h13.5c0.5,0.2,0.8,0.7,0.7,1.3c-0.1,0.3-0.3,0.6-0.7,0.7h-13.5
					c-0.5-0.2-0.8-0.7-0.7-1.3C271.3,45.3,271.5,45,271.8,45z M268,42.1h21.2v7.6H268L268,42.1z"/>
			</defs>
			<clipPath id="SVGID_15_">
				<use xlink:href="#SVGID_14_"  style="overflow:visible;"/>
			</clipPath>
			<g class="st9">
				<g>
					<defs>
						<path id="SVGID_16_" d="M271.8,44.9h13.5c0.6,0,1,0.4,1,1s-0.4,1-1,1h-13.5c-0.6,0-1-0.4-1-1S271.3,44.9,271.8,44.9z"/>
					</defs>
					<clipPath id="SVGID_17_">
						<use xlink:href="#SVGID_16_"  style="overflow:visible;"/>
					</clipPath>
					<g class="st10">
						<g>
							<defs>
								<rect id="SVGID_18_" x="192.6" y="-119.9" width="171.6" height="351.3"/>
							</defs>
							<clipPath id="SVGID_19_">
								<use xlink:href="#SVGID_18_"  style="overflow:visible;"/>
							</clipPath>
							<g class="st11">
								<path class="st12" d="M271.8,44.9h13.5c0.6,0,1,0.4,1,1s-0.4,1-1,1h-13.5c-0.6,0-1-0.4-1-1S271.3,44.9,271.8,44.9z"/>
							</g>
						</g>
					</g>
				</g>
			</g>
		</g>
		<g>
			<defs>
				<path id="SVGID_20_" d="M271.8,39.9c-0.6,0-1.1,0.5-1.1,1.1c0,0.6,0.5,1.1,1.1,1.1h13.5c0.6,0,1.1-0.5,1.1-1.1
					c0-0.6-0.5-1.1-1.1-1.1H271.8z M271.8,40.1h13.5c0.5,0.2,0.8,0.7,0.7,1.2c-0.1,0.3-0.4,0.6-0.7,0.7h-13.5
					c-0.5-0.2-0.8-0.7-0.7-1.2C271.3,40.4,271.5,40.2,271.8,40.1z M268,37.2h21.2v7.6H268L268,37.2z"/>
			</defs>
			<clipPath id="SVGID_21_">
				<use xlink:href="#SVGID_20_"  style="overflow:visible;"/>
			</clipPath>
			<g class="st13">
				<g>
					<defs>
						<path id="SVGID_22_" d="M271.8,40h13.5c0.6,0,1,0.4,1,1s-0.4,1-1,1h-13.5c-0.6,0-1-0.4-1-1S271.3,40,271.8,40z"/>
					</defs>
					<clipPath id="SVGID_23_">
						<use xlink:href="#SVGID_22_"  style="overflow:visible;"/>
					</clipPath>
					<g class="st14">
						<g>
							<defs>
								<rect id="SVGID_24_" x="192.6" y="-124.7" width="171.6" height="351.3"/>
							</defs>
							<clipPath id="SVGID_25_">
								<use xlink:href="#SVGID_24_"  style="overflow:visible;"/>
							</clipPath>
							<g class="st15">
								<path class="st12" d="M271.8,40h13.5c0.6,0,1,0.4,1,1s-0.4,1-1,1h-13.5c-0.6,0-1-0.4-1-1S271.3,40,271.8,40z"/>
							</g>
						</g>
					</g>
				</g>
			</g>
		</g>
		<g>
			<defs>
				<path id="SVGID_26_" d="M271.8,49.5c-0.6,0.1-1,0.6-1,1.2c0.1,0.5,0.5,0.9,1,1h13.5c0.6-0.1,1-0.6,1-1.2c-0.1-0.5-0.5-0.9-1-1
					H271.8z M271.8,49.6h13.5c0.5,0.2,0.8,0.7,0.7,1.3c-0.1,0.3-0.3,0.6-0.7,0.7h-13.5c-0.5-0.2-0.8-0.7-0.7-1.3
					C271.3,49.9,271.5,49.7,271.8,49.6z M268,46.7h21.2v7.6H268L268,46.7z"/>
			</defs>
			<clipPath id="SVGID_27_">
				<use xlink:href="#SVGID_26_"  style="overflow:visible;"/>
			</clipPath>
			<g class="st16">
				<g>
					<defs>
						<path id="SVGID_28_" d="M271.8,49.5h13.5c0.6,0,1,0.5,1,1c0,0.6-0.5,1-1,1h-13.5c-0.6,0-1-0.5-1-1
							C270.8,50,271.3,49.5,271.8,49.5z"/>
					</defs>
					<clipPath id="SVGID_29_">
						<use xlink:href="#SVGID_28_"  style="overflow:visible;"/>
					</clipPath>
					<g class="st17">
						<g>
							<defs>
								<rect id="SVGID_30_" x="192.6" y="-119.9" width="171.6" height="351.3"/>
							</defs>
							<clipPath id="SVGID_31_">
								<use xlink:href="#SVGID_30_"  style="overflow:visible;"/>
							</clipPath>
							<g class="st18">
								<path class="st12" d="M271.8,49.5h13.5c0.6,0,1,0.5,1,1c0,0.6-0.5,1-1,1h-13.5c-0.6,0-1-0.5-1-1
									C270.8,50,271.3,49.5,271.8,49.5z"/>
							</g>
						</g>
					</g>
				</g>
			</g>
		</g>
		<g>
			<defs>
				<path id="SVGID_32_" d="M271.8,49.5h13.5c0.6,0,1,0.5,1,1c0,0.6-0.5,1-1,1h-13.5c-0.6,0-1-0.5-1-1
					C270.8,50,271.3,49.5,271.8,49.5z"/>
			</defs>
			<clipPath id="SVGID_33_">
				<use xlink:href="#SVGID_32_"  style="overflow:visible;"/>
			</clipPath>
			<g class="st19">
				<g>
					<defs>
						<rect id="SVGID_34_" x="192.6" y="-119.9" width="171.6" height="351.3"/>
					</defs>
					<clipPath id="SVGID_35_">
						<use xlink:href="#SVGID_34_"  style="overflow:visible;"/>
					</clipPath>
					<g class="st20">
						<path class="st21" d="M271.8,49.5h13.5c0.6,0,1,0.5,1,1c0,0.6-0.5,1-1,1h-13.5c-0.6,0-1-0.5-1-1
							C270.8,50,271.3,49.5,271.8,49.5z"/>
					</g>
				</g>
			</g>
		</g>
		<path class="st12" d="M129.5,58.6V47.3h1.3v11.3H129.5z"/>
		<path class="st22" d="M136.1,56.1v-8.6h3c0.5,0,1,0,1.5,0.1c0.5,0.1,0.9,0.3,1.3,0.6c0.5,0.4,0.8,0.9,1,1.5c0.2,0.6,0.3,1.3,0.3,2
			c0,0.6-0.1,1.2-0.2,1.7c-0.1,0.4-0.3,0.9-0.6,1.2c-0.2,0.3-0.5,0.6-0.8,0.8c-0.3,0.2-0.6,0.3-1,0.4c-0.5,0.1-0.9,0.2-1.4,0.1
			L136.1,56.1z M137.2,55.1h1.8c0.4,0,0.9,0,1.3-0.2c0.3-0.1,0.6-0.2,0.8-0.4c0.3-0.3,0.5-0.7,0.6-1.1c0.2-0.5,0.2-1.1,0.2-1.6
			c0-0.7-0.1-1.4-0.4-2.1c-0.2-0.4-0.6-0.8-1.1-1c-0.5-0.1-1-0.2-1.5-0.2h-1.8V55.1z"/>
		<path class="st22" d="M144.7,48.7v-1.2h1v1.2H144.7z M144.7,56.1v-6.2h1v6.2H144.7z"/>
		<path class="st22" d="M147.1,56.6l1,0.1c0,0.3,0.1,0.5,0.4,0.7c0.3,0.2,0.7,0.3,1.1,0.3c0.4,0,0.8-0.1,1.1-0.3
			c0.3-0.2,0.5-0.5,0.5-0.8c0.1-0.4,0.1-0.9,0.1-1.4c-0.4,0.5-1.1,0.8-1.7,0.8c-0.8,0-1.5-0.3-2-0.9c-0.5-0.6-0.7-1.4-0.7-2.2
			c0-0.6,0.1-1.1,0.3-1.6c0.4-1,1.3-1.6,2.4-1.6c0.7,0,1.4,0.3,1.8,0.9v-0.8h1v5.4c0,0.7-0.1,1.4-0.3,2.1c-0.2,0.4-0.5,0.8-0.9,1
			c-0.5,0.2-1,0.4-1.6,0.4c-0.6,0-1.3-0.1-1.8-0.5C147.3,57.8,147,57.2,147.1,56.6z M148,52.9c-0.1,0.6,0.1,1.3,0.5,1.8
			c0.3,0.4,0.8,0.6,1.2,0.6c0.5,0,0.9-0.2,1.2-0.6c0.7-1.1,0.7-2.4,0-3.5c-0.3-0.4-0.8-0.6-1.2-0.6c-0.5,0-0.9,0.2-1.2,0.6
			C148.1,51.6,147.9,52.2,148,52.9z"/>
		<path class="st22" d="M154,48.7v-1.2h1v1.2H154z M154,56.1v-6.2h1v6.2H154z"/>
		<path class="st22" d="M158.9,55.1l0.2,0.9c-0.3,0.1-0.5,0.1-0.8,0.1c-0.3,0-0.6,0-0.9-0.2c-0.2-0.1-0.3-0.3-0.4-0.5
			c-0.1-0.4-0.2-0.8-0.1-1.2v-3.6h-0.8v-0.8h0.8v-1.5l1-0.6v2.2h1.1v0.8h-1v3.6c0,0.2,0,0.4,0.1,0.6c0,0.1,0.1,0.2,0.2,0.2
			c0.1,0.1,0.2,0.1,0.4,0.1C158.6,55.2,158.8,55.2,158.9,55.1z"/>
		<path class="st22" d="M164,55.3c-0.3,0.3-0.7,0.5-1.1,0.7c-0.4,0.1-0.8,0.2-1.2,0.2c-0.6,0-1.1-0.1-1.6-0.5
			c-0.4-0.3-0.6-0.8-0.6-1.3c0-0.3,0.1-0.6,0.2-0.8c0.1-0.2,0.3-0.5,0.6-0.6c0.2-0.2,0.5-0.3,0.8-0.3c0.3-0.1,0.6-0.1,0.9-0.2
			c0.6-0.1,1.3-0.2,1.9-0.4c0-0.1,0-0.2,0-0.3c0-0.3-0.1-0.7-0.3-0.9c-0.3-0.3-0.8-0.4-1.2-0.4c-0.4,0-0.8,0.1-1.1,0.3
			c-0.3,0.2-0.5,0.6-0.5,0.9l-1-0.1c0.1-0.4,0.2-0.8,0.5-1.1c0.2-0.3,0.6-0.5,0.9-0.6c0.5-0.2,0.9-0.2,1.4-0.2c0.4,0,0.9,0,1.3,0.2
			c0.3,0.1,0.5,0.3,0.7,0.5c0.2,0.2,0.3,0.5,0.3,0.7c0,0.3,0,0.7,0,1v1.4c0,0.6,0,1.2,0.1,1.9c0,0.3,0.1,0.5,0.3,0.8h-1.1
			C164.1,55.9,164,55.6,164,55.3z M163.9,53c-0.6,0.2-1.1,0.3-1.7,0.4c-0.3,0-0.6,0.1-0.9,0.2c-0.2,0.1-0.3,0.2-0.4,0.3
			c-0.3,0.4-0.2,0.9,0.2,1.2c0.3,0.2,0.6,0.3,0.9,0.3c0.4,0,0.8-0.1,1.1-0.3c0.3-0.2,0.5-0.4,0.7-0.7c0.1-0.3,0.2-0.7,0.2-1V53z"/>
		<path class="st22" d="M166.6,56.1v-8.6h1.1v8.6H166.6z"/>
		<path class="st22" d="M178.9,53.1l1.1,0.3c-0.2,0.8-0.6,1.6-1.3,2.1c-0.6,0.5-1.5,0.8-2.3,0.7c-0.8,0-1.6-0.2-2.3-0.6
			c-0.6-0.4-1.1-1-1.3-1.6c-0.3-0.7-0.5-1.5-0.5-2.3c0-0.8,0.2-1.6,0.5-2.3c0.3-0.6,0.8-1.2,1.5-1.5c0.6-0.4,1.4-0.5,2.1-0.5
			c0.8,0,1.5,0.2,2.2,0.7c0.6,0.5,1,1.1,1.2,1.8l-1.1,0.3c-0.1-0.5-0.4-1-0.9-1.4c-0.4-0.3-0.9-0.5-1.4-0.4c-0.6,0-1.2,0.1-1.7,0.5
			c-0.4,0.3-0.8,0.8-0.9,1.3c-0.2,0.5-0.3,1.1-0.3,1.6c0,0.7,0.1,1.3,0.3,1.9c0.2,0.5,0.5,0.9,1,1.2c0.4,0.3,0.9,0.4,1.5,0.4
			c0.6,0,1.2-0.2,1.6-0.6C178.5,54.3,178.8,53.7,178.9,53.1z"/>
		<path class="st22" d="M180.9,53c-0.1-1,0.3-1.9,1-2.6c0.6-0.5,1.3-0.7,2-0.7c0.8,0,1.5,0.3,2.1,0.8c0.6,0.6,0.9,1.5,0.8,2.3
			c0,0.6-0.1,1.3-0.4,1.9c-0.2,0.4-0.6,0.8-1,1.1c-0.5,0.3-1,0.4-1.5,0.4c-0.8,0-1.6-0.3-2.1-0.8C181.2,54.7,180.9,53.9,180.9,53z
			 M182,53c0,0.6,0.1,1.3,0.5,1.8c0.3,0.4,0.8,0.6,1.3,0.6c0.5,0,1-0.2,1.3-0.6c0.4-0.5,0.6-1.2,0.5-1.8c0-0.6-0.1-1.2-0.5-1.8
			c-0.3-0.4-0.8-0.6-1.3-0.6c-0.5,0-1,0.2-1.3,0.6C182.1,51.7,182,52.3,182,53z"/>
		<path class="st22" d="M188,56.1v-6.2h0.9v0.9c0.4-0.7,1.2-1,2-1c0.3,0,0.7,0.1,1,0.2c0.3,0.1,0.5,0.3,0.7,0.5
			c0.2,0.2,0.3,0.5,0.3,0.8c0,0.3,0.1,0.7,0.1,1v3.8h-1v-3.8c0-0.3,0-0.7-0.1-1c-0.1-0.2-0.2-0.4-0.4-0.5c-0.2-0.1-0.5-0.2-0.7-0.2
			c-0.4,0-0.8,0.1-1.2,0.4c-0.4,0.5-0.6,1-0.5,1.6V56L188,56.1z"/>
		<path class="st22" d="M198.7,53.8l1,0.1c-0.1,0.6-0.4,1.2-0.9,1.7c-0.5,0.4-1.1,0.6-1.7,0.6c-0.8,0-1.5-0.3-2.1-0.8
			c-0.6-0.7-0.8-1.5-0.8-2.4c0-0.6,0.2-1.2,0.4-1.7c0.2-0.5,0.5-0.9,1-1.1c0.5-0.3,1-0.4,1.5-0.4c0.6,0,1.2,0.2,1.7,0.5
			c0.4,0.4,0.7,0.9,0.8,1.5l-1,0.2c-0.1-0.4-0.2-0.7-0.5-0.9c-0.2-0.2-0.6-0.3-0.9-0.3c-0.5,0-1,0.2-1.3,0.6
			c-0.4,0.5-0.6,1.2-0.5,1.8c-0.1,0.6,0.1,1.3,0.5,1.8c0.3,0.4,0.8,0.6,1.2,0.6c0.4,0,0.7-0.1,1-0.4
			C198.5,54.7,198.7,54.3,198.7,53.8z"/>
		<path class="st22" d="M200.7,48.7v-1.2h1v1.2H200.7z M200.7,56.1v-6.2h1v6.2H200.7z"/>
		<path class="st22" d="M207.6,54.1l1.1,0.2c-0.1,0.6-0.5,1.1-0.9,1.5c-1.2,0.8-2.9,0.7-4-0.3c-0.6-0.7-0.8-1.5-0.8-2.4
			c-0.1-0.9,0.2-1.8,0.8-2.4c0.5-0.6,1.3-0.9,2.1-0.9c0.8,0,1.5,0.3,2,0.9c0.6,0.7,0.8,1.5,0.8,2.4c0,0.1,0,0.2,0,0.3H204
			c0,0.6,0.2,1.1,0.6,1.6c0.3,0.4,0.8,0.6,1.3,0.6c0.4,0,0.7-0.1,1-0.3C207.2,54.8,207.5,54.5,207.6,54.1z M204.1,52.4h3.5
			c0-0.4-0.2-0.8-0.4-1.2c-0.3-0.4-0.8-0.6-1.3-0.6c-0.5,0-0.9,0.2-1.2,0.5C204.3,51.4,204.1,51.9,204.1,52.4z"/>
		<path class="st22" d="M210,56.1v-6.2h0.9v0.9c0.2-0.3,0.4-0.6,0.7-0.9c0.2-0.1,0.4-0.2,0.7-0.2c0.4,0,0.8,0.1,1.1,0.3l-0.4,1
			c-0.2-0.1-0.5-0.2-0.8-0.2c-0.2,0-0.4,0.1-0.6,0.2c-0.2,0.1-0.3,0.4-0.4,0.6c-0.1,0.4-0.2,0.8-0.2,1.2v3.3L210,56.1z"/>
		<path class="st22" d="M213.8,56.6l1,0.1c0,0.3,0.1,0.5,0.4,0.7c0.3,0.2,0.7,0.3,1.1,0.3c0.4,0,0.8-0.1,1.1-0.3
			c0.3-0.2,0.5-0.5,0.5-0.8c0.1-0.4,0.1-0.9,0.1-1.4c-0.4,0.5-1.1,0.8-1.7,0.8c-0.8,0-1.5-0.3-2-0.9c-0.5-0.6-0.7-1.4-0.7-2.2
			c0-0.6,0.1-1.1,0.3-1.6c0.2-0.5,0.5-0.9,0.9-1.2c0.4-0.3,0.9-0.4,1.4-0.4c0.7,0,1.4,0.3,1.8,0.9v-0.8h1v5.4c0,0.7-0.1,1.4-0.3,2.1
			c-0.2,0.4-0.5,0.8-0.9,1c-0.5,0.2-1,0.4-1.6,0.4c-0.6,0-1.3-0.1-1.8-0.5C214,57.8,213.7,57.2,213.8,56.6z M214.7,52.9
			c-0.1,0.6,0.1,1.3,0.5,1.8c0.6,0.7,1.6,0.7,2.3,0.2c0.1-0.1,0.1-0.1,0.2-0.2c0.4-0.5,0.5-1.1,0.5-1.8c0-0.6-0.1-1.2-0.5-1.7
			c-0.3-0.4-0.7-0.6-1.2-0.6c-0.5,0-0.9,0.2-1.2,0.6C214.8,51.6,214.6,52.2,214.7,52.9L214.7,52.9z"/>
		<path class="st22" d="M224.9,54.1l1.1,0.1c-0.2,0.6-0.5,1.1-1,1.5c-0.5,0.4-1.1,0.6-1.8,0.5c-0.8,0-1.6-0.3-2.2-0.8
			c-0.6-0.7-0.9-1.5-0.8-2.4c-0.1-0.9,0.2-1.8,0.8-2.4c1.1-1.1,3-1.1,4.1,0c0,0,0,0,0,0c0.6,0.7,0.8,1.5,0.8,2.4v0.3h-4.6
			c0,0.6,0.2,1.1,0.6,1.6c0.3,0.4,0.8,0.6,1.3,0.6c0.4,0,0.7-0.1,1-0.3C224.6,54.8,224.8,54.5,224.9,54.1z M221.5,52.4h3.5
			c0-0.4-0.2-0.8-0.4-1.2c-0.3-0.4-0.8-0.6-1.3-0.6c-0.5,0-0.9,0.2-1.2,0.5C221.7,51.4,221.5,51.9,221.5,52.4z"/>
	</g>
</g>
<g>
	<path class="st12" d="M15.6,47.2h2.3l3.3,5.7v-5.7h1.7v8.6h-1.9l-3.6-6.1v6.1h-1.7V47.2z"/>
	<path class="st12" d="M27.5,55.9c-0.5,0-0.9-0.1-1.3-0.2s-0.7-0.4-1-0.6c-0.3-0.3-0.5-0.6-0.7-1c-0.2-0.4-0.2-0.8-0.2-1.3v-0.1
		c0-0.5,0.1-0.9,0.2-1.3c0.2-0.4,0.4-0.7,0.7-1c0.3-0.3,0.6-0.5,1-0.7c0.4-0.2,0.8-0.2,1.3-0.2c0.4,0,0.8,0.1,1.2,0.2
		c0.4,0.1,0.7,0.3,1,0.6c0.3,0.3,0.5,0.6,0.7,1s0.3,0.9,0.3,1.4V53H26c0,0.5,0.2,0.9,0.4,1.2c0.3,0.3,0.6,0.4,1.1,0.4
		c0.4,0,0.7-0.1,0.9-0.2c0.2-0.2,0.3-0.4,0.4-0.6h1.6c-0.1,0.7-0.4,1.2-0.9,1.6C29.1,55.7,28.4,55.9,27.5,55.9z M28.8,52
		c0-0.5-0.2-0.8-0.4-1.1c-0.2-0.2-0.6-0.3-1-0.3c-0.4,0-0.7,0.1-1,0.4c-0.3,0.2-0.4,0.6-0.5,1H28.8z"/>
	<path class="st12" d="M31.1,49.5h1.8l1.1,4.2l1.2-4.2h1.4l1.1,4.2l1.2-4.2h1.7l-2,6.3H37l-1.1-3.9l-1.2,3.9H33L31.1,49.5z"/>
	<path class="st12" d="M44,55.9c-0.8,0-1.5-0.2-2-0.5c-0.5-0.4-0.7-0.9-0.8-1.6h1.6c0,0.3,0.1,0.5,0.3,0.7c0.2,0.2,0.4,0.2,0.8,0.2
		c0.3,0,0.6-0.1,0.7-0.2c0.2-0.1,0.2-0.3,0.2-0.5s-0.1-0.4-0.3-0.5c-0.2-0.1-0.5-0.2-1-0.3c-0.4-0.1-0.8-0.1-1.1-0.2
		s-0.5-0.2-0.7-0.4c-0.2-0.2-0.3-0.3-0.4-0.6s-0.1-0.5-0.1-0.8c0-0.3,0.1-0.6,0.2-0.9s0.3-0.5,0.6-0.6c0.2-0.2,0.5-0.3,0.8-0.4
		c0.3-0.1,0.6-0.1,0.9-0.1c0.3,0,0.7,0,1,0.1c0.3,0.1,0.6,0.2,0.8,0.3c0.2,0.2,0.4,0.4,0.6,0.6c0.1,0.2,0.2,0.6,0.3,0.9h-1.6
		c0-0.3-0.1-0.4-0.3-0.6c-0.2-0.1-0.4-0.2-0.7-0.2c-0.3,0-0.5,0.1-0.7,0.2C43.1,50.9,43,51,43,51.2c0,0.2,0.1,0.3,0.3,0.4
		c0.2,0.1,0.5,0.2,0.9,0.2c0.4,0.1,0.7,0.1,1,0.2c0.3,0.1,0.6,0.2,0.8,0.3c0.2,0.2,0.4,0.3,0.5,0.6c0.1,0.2,0.2,0.5,0.2,0.8
		c0,0.7-0.2,1.2-0.7,1.5C45.5,55.7,44.9,55.9,44,55.9z"/>
	<path class="st12" d="M56.9,54l1.4,1.8h-2.2L55.5,55c-0.3,0.2-0.6,0.5-1,0.6c-0.4,0.2-0.8,0.3-1.4,0.3c-0.4,0-0.8-0.1-1.2-0.2
		c-0.4-0.1-0.7-0.3-0.9-0.5c-0.3-0.2-0.5-0.5-0.6-0.8c-0.1-0.3-0.2-0.7-0.2-1c0-0.6,0.2-1.1,0.5-1.5c0.3-0.4,0.8-0.7,1.4-1
		c-0.2-0.3-0.4-0.6-0.5-0.8c-0.1-0.3-0.1-0.5-0.1-0.8c0-0.3,0.1-0.6,0.2-0.9c0.1-0.3,0.3-0.5,0.6-0.7c0.2-0.2,0.5-0.3,0.8-0.4
		c0.3-0.1,0.6-0.1,1-0.1c0.3,0,0.6,0,0.9,0.1c0.3,0.1,0.5,0.2,0.7,0.4c0.2,0.2,0.4,0.4,0.5,0.6c0.1,0.2,0.2,0.5,0.2,0.8
		c0,0.5-0.1,0.9-0.4,1.3c-0.3,0.4-0.7,0.6-1.3,0.9l1.3,1.6l0.8-1.5h1.5L56.9,54z M53.4,54.5c0.2,0,0.4,0,0.6-0.1
		c0.2-0.1,0.4-0.2,0.5-0.4l-1.6-2c-0.3,0.1-0.5,0.3-0.6,0.5c-0.2,0.2-0.3,0.5-0.3,0.8c0,0.4,0.1,0.7,0.3,0.9S53,54.5,53.4,54.5z
		 M53.3,49.3c0,0.2,0,0.4,0.1,0.5c0.1,0.2,0.2,0.4,0.4,0.6c0.4-0.2,0.6-0.4,0.8-0.5s0.2-0.4,0.2-0.7c0-0.2-0.1-0.4-0.2-0.6
		c-0.1-0.1-0.3-0.2-0.5-0.2c-0.2,0-0.4,0.1-0.6,0.2C53.4,48.7,53.3,49,53.3,49.3z"/>
	<path class="st12" d="M62.4,47.2h3c1,0,1.9,0.2,2.4,0.7c0.6,0.5,0.9,1.1,0.9,2.1v0c0,0.5-0.1,0.8-0.2,1.2S68,51.8,67.7,52
		c-0.3,0.2-0.6,0.4-1,0.5c-0.4,0.1-0.8,0.2-1.3,0.2h-1.1v3.1h-1.9V47.2z M65.3,51.3c0.5,0,0.9-0.1,1.1-0.3c0.2-0.2,0.4-0.5,0.4-1v0
		c0-0.5-0.1-0.8-0.4-1c-0.3-0.2-0.6-0.3-1.1-0.3h-1v2.6H65.3z"/>
	<path class="st12" d="M71.9,55.9c-0.3,0-0.6,0-0.8-0.1c-0.3-0.1-0.5-0.2-0.7-0.4c-0.2-0.2-0.3-0.4-0.4-0.7s-0.2-0.7-0.2-1.1v-4h1.7
		v3.8c0,0.4,0.1,0.7,0.3,0.9s0.5,0.3,0.8,0.3c0.4,0,0.7-0.1,0.9-0.3c0.3-0.2,0.4-0.6,0.4-1v-3.7h1.7v6.3h-1.7v-1
		c-0.2,0.3-0.4,0.6-0.7,0.8C72.9,55.8,72.5,55.9,71.9,55.9z"/>
	<path class="st12" d="M81.1,55.9c-0.5,0-0.9-0.1-1.2-0.3c-0.3-0.2-0.6-0.5-0.8-0.8v1h-1.7v-9.1h1.7v3.8c0.2-0.3,0.4-0.6,0.8-0.8
		c0.3-0.2,0.8-0.3,1.2-0.3c0.4,0,0.7,0.1,1.1,0.2c0.3,0.1,0.6,0.3,0.9,0.6c0.2,0.3,0.4,0.6,0.6,1s0.2,0.9,0.2,1.4v0.1
		c0,0.5-0.1,1-0.2,1.4c-0.1,0.4-0.3,0.7-0.6,1c-0.2,0.3-0.5,0.5-0.9,0.6S81.5,55.9,81.1,55.9z M80.6,54.6c0.5,0,0.8-0.2,1.1-0.5
		c0.3-0.3,0.4-0.8,0.4-1.4v-0.1c0-0.6-0.1-1.1-0.4-1.4c-0.3-0.3-0.6-0.5-1.1-0.5c-0.5,0-0.8,0.2-1.1,0.5c-0.3,0.3-0.4,0.8-0.4,1.4
		v0.1c0,0.6,0.1,1.1,0.4,1.4C79.7,54.4,80.1,54.6,80.6,54.6z"/>
	<path class="st12" d="M85.2,46.7h1.7v9.1h-1.7V46.7z"/>
	<path class="st12" d="M89.5,48.6c-0.3,0-0.5-0.1-0.7-0.3c-0.2-0.2-0.3-0.4-0.3-0.7c0-0.3,0.1-0.5,0.3-0.7s0.4-0.3,0.7-0.3
		c0.3,0,0.5,0.1,0.7,0.3c0.2,0.2,0.3,0.4,0.3,0.7c0,0.3-0.1,0.5-0.3,0.7C90.1,48.6,89.8,48.6,89.5,48.6z M88.7,49.5h1.7v6.3h-1.7
		V49.5z"/>
	<path class="st12" d="M94.4,55.9c-0.8,0-1.5-0.2-2-0.5c-0.5-0.4-0.7-0.9-0.8-1.6h1.6c0,0.3,0.1,0.5,0.3,0.7
		c0.2,0.2,0.4,0.2,0.8,0.2c0.3,0,0.6-0.1,0.7-0.2c0.2-0.1,0.2-0.3,0.2-0.5s-0.1-0.4-0.3-0.5c-0.2-0.1-0.5-0.2-1-0.3
		c-0.4-0.1-0.8-0.1-1.1-0.2s-0.5-0.2-0.7-0.4c-0.2-0.2-0.3-0.3-0.4-0.6s-0.1-0.5-0.1-0.8c0-0.3,0.1-0.6,0.2-0.9s0.3-0.5,0.6-0.6
		c0.2-0.2,0.5-0.3,0.8-0.4c0.3-0.1,0.6-0.1,0.9-0.1c0.3,0,0.7,0,1,0.1c0.3,0.1,0.6,0.2,0.8,0.3c0.2,0.2,0.4,0.4,0.6,0.6
		c0.1,0.2,0.2,0.6,0.3,0.9h-1.6c0-0.3-0.1-0.4-0.3-0.6c-0.2-0.1-0.4-0.2-0.7-0.2c-0.3,0-0.5,0.1-0.7,0.2c-0.2,0.1-0.2,0.3-0.2,0.5
		c0,0.2,0.1,0.3,0.3,0.4c0.2,0.1,0.5,0.2,0.9,0.2c0.4,0.1,0.7,0.1,1,0.2c0.3,0.1,0.6,0.2,0.8,0.3c0.2,0.2,0.4,0.3,0.5,0.6
		c0.1,0.2,0.2,0.5,0.2,0.8c0,0.7-0.2,1.2-0.7,1.5C95.9,55.7,95.3,55.9,94.4,55.9z"/>
	<path class="st12" d="M98.3,46.7h1.7v3.8c0.2-0.3,0.4-0.6,0.7-0.8c0.3-0.2,0.8-0.3,1.3-0.3c0.3,0,0.6,0,0.9,0.1
		c0.3,0.1,0.5,0.2,0.7,0.4c0.2,0.2,0.3,0.5,0.4,0.8c0.1,0.3,0.2,0.7,0.2,1.1v4h-1.7V52c0-0.4-0.1-0.8-0.3-1
		c-0.2-0.2-0.5-0.3-0.8-0.3c-0.4,0-0.7,0.1-0.9,0.3c-0.2,0.2-0.4,0.6-0.4,1v3.6h-1.7V46.7z"/>
	<path class="st12" d="M106.7,48.6c-0.3,0-0.5-0.1-0.7-0.3c-0.2-0.2-0.3-0.4-0.3-0.7c0-0.3,0.1-0.5,0.3-0.7s0.4-0.3,0.7-0.3
		c0.3,0,0.5,0.1,0.7,0.3c0.2,0.2,0.3,0.4,0.3,0.7c0,0.3-0.1,0.5-0.3,0.7C107.3,48.6,107,48.6,106.7,48.6z M105.9,49.5h1.7v6.3h-1.7
		V49.5z"/>
	<path class="st12" d="M109.4,49.5h1.7v1c0.2-0.3,0.4-0.6,0.7-0.8c0.3-0.2,0.8-0.3,1.3-0.3c0.3,0,0.6,0,0.9,0.1
		c0.3,0.1,0.5,0.2,0.7,0.4c0.2,0.2,0.3,0.5,0.4,0.8c0.1,0.3,0.2,0.7,0.2,1.1v4h-1.7V52c0-0.4-0.1-0.8-0.3-1
		c-0.2-0.2-0.5-0.3-0.8-0.3c-0.4,0-0.7,0.1-0.9,0.3c-0.2,0.2-0.4,0.6-0.4,1v3.6h-1.7V49.5z"/>
	<path class="st12" d="M119.7,58.1c-0.5,0-0.9-0.1-1.3-0.2c-0.4-0.1-0.7-0.3-0.9-0.4c-0.3-0.2-0.5-0.4-0.6-0.7
		c-0.1-0.3-0.2-0.6-0.3-0.9h1.7c0.1,0.3,0.2,0.5,0.4,0.7s0.5,0.2,1,0.2c0.5,0,0.9-0.1,1.2-0.4c0.3-0.3,0.4-0.6,0.4-1.1v-1
		c-0.1,0.2-0.2,0.3-0.3,0.4s-0.3,0.3-0.5,0.4c-0.2,0.1-0.4,0.2-0.6,0.3c-0.2,0.1-0.4,0.1-0.7,0.1c-0.4,0-0.7-0.1-1.1-0.2
		c-0.3-0.1-0.6-0.3-0.9-0.6c-0.2-0.3-0.4-0.6-0.6-0.9c-0.1-0.4-0.2-0.8-0.2-1.3v-0.1c0-0.4,0.1-0.9,0.2-1.2c0.1-0.4,0.3-0.7,0.6-1
		c0.2-0.3,0.5-0.5,0.9-0.6c0.3-0.2,0.7-0.2,1.1-0.2c0.5,0,0.9,0.1,1.2,0.3s0.6,0.5,0.8,0.8v-0.9h1.7v5.8c0,0.9-0.3,1.6-0.9,2.1
		C121.5,57.9,120.7,58.1,119.7,58.1z M119.8,54.2c0.5,0,0.8-0.2,1.1-0.5c0.3-0.3,0.4-0.7,0.4-1.3v-0.1c0-0.5-0.1-1-0.4-1.3
		c-0.3-0.3-0.6-0.5-1.1-0.5c-0.5,0-0.9,0.2-1.1,0.5c-0.3,0.3-0.4,0.7-0.4,1.2v0.1c0,0.5,0.1,0.9,0.4,1.2
		C119,54,119.3,54.2,119.8,54.2z"/>
</g>
</svg>
