<svg xmlns="http://www.w3.org/2000/svg" viewBox="0 0 242.2 14.75"><defs><style>.cls-1{fill:#fcce0d;}.cls-2{fill:#828282;}</style></defs><title>chat-window-logo-NP</title><g id="Layer_2" data-name="Layer 2"><g id="Layer_1-2" data-name="Layer 1"><g id="Layer_1-2-2" data-name="Layer 1-2"><path class="cls-1" d="M17.77,14.16v.25a.46.46,0,0,1-.36.3H.36A.46.46,0,0,1,0,14.4v-.15A.45.45,0,0,1,.5,14h2V3.72a1,1,0,0,1,0-.25A1.73,1.73,0,0,1,3.8,2L4.11,2V1.39A1.68,1.68,0,0,1,5.39,0h8.27a1.35,1.35,0,0,1,.61.18,1.7,1.7,0,0,1,.9,1.58V14h2.22A.38.38,0,0,1,17.77,14.16ZM14.49,14V1.72a.93.93,0,0,0-.85-1H5.88a.94.94,0,0,0-1,.88V14ZM4.17,14V2.73a.92.92,0,0,0-.85.93V14Z"/><path class="cls-1" d="M9,9.15v1a1,1,0,0,1-1,1H7.36a1.11,1.11,0,0,1-1-1.2V8.42a1,1,0,0,1,.59-1,.9.9,0,0,1,.33-.09,6.31,6.31,0,0,1,.87,0,1,1,0,0,1,.88,1Zm-.67,0h0V8.37a.27.27,0,0,0-.24-.3H7.43a.28.28,0,0,0-.3.26V9.9a.28.28,0,0,0,.25.31H8c.23,0,.34-.1.34-.34Z"/><path class="cls-1" d="M9,4.05v1A1,1,0,0,1,8,6H7.37a1,1,0,0,1-1-1.16V3.27a1,1,0,0,1,.5-.91.79.79,0,0,1,.39-.13,4.51,4.51,0,0,1,.9,0,1,1,0,0,1,.85,1v.82Zm-.67.06h0V3.34A.28.28,0,0,0,8.09,3H7.45a.29.29,0,0,0-.32.26V4.85a.29.29,0,0,0,.25.33H8a.3.3,0,0,0,.34-.25V4.11Z"/><path class="cls-1" d="M12.89,4.12V5a1,1,0,0,1-1,1h-.6a1.06,1.06,0,0,1-1-1V3.25a1,1,0,0,1,1-1h.05a3.86,3.86,0,0,1,.68,0,1.08,1.08,0,0,1,.9,1v.9Zm-.73,0V3.36A.29.29,0,0,0,11.91,3h-.6a.28.28,0,0,0-.31.25V4.87a.28.28,0,0,0,.25.31h.57a.3.3,0,0,0,.34-.34Z"/><path class="cls-1" d="M12.89,9.22v.83a1,1,0,0,1-1,1h-.68a1.08,1.08,0,0,1-1-1V8.35a1,1,0,0,1,1-1h.06a3.53,3.53,0,0,1,.65,0,1.06,1.06,0,0,1,.92,1v.9Zm-.73-.07V8.38a.28.28,0,0,0-.25-.31h-.6a.27.27,0,0,0-.31.22V9.91a.27.27,0,0,0,.23.3h.59a.3.3,0,0,0,.34-.25V9.15Z"/></g><path d="M138.43,14.75V2.64h1.4V14.75Z"/><path class="cls-2" d="M145.51,12V2.8h3.18a8.21,8.21,0,0,1,1.64.15,3.38,3.38,0,0,1,1.36.66,3.94,3.94,0,0,1,1.09,1.58,6.35,6.35,0,0,1,.36,2.2,6.51,6.51,0,0,1-.24,1.86,5.19,5.19,0,0,1-.63,1.35,3.94,3.94,0,0,1-.84.84,3.84,3.84,0,0,1-1.11.46,6.71,6.71,0,0,1-1.48.16ZM146.73,11h2a5,5,0,0,0,1.43-.17,2.23,2.23,0,0,0,.83-.48,2.93,2.93,0,0,0,.68-1.17,6,6,0,0,0,.24-1.78,4.42,4.42,0,0,0-.47-2.23,2.46,2.46,0,0,0-1.16-1,4.7,4.7,0,0,0-1.58-.19h-2Z"/><path class="cls-2" d="M154.69,4.11V2.8h1.13V4.11Zm0,7.93V5.35h1.13V12Z"/><path class="cls-2" d="M157.34,12.59l1.1.16a1.1,1.1,0,0,0,.38.75,1.9,1.9,0,0,0,1.16.31,2,2,0,0,0,1.21-.31,1.54,1.54,0,0,0,.58-.89,7.06,7.06,0,0,0,.08-1.45A2.34,2.34,0,0,1,160,12a2.53,2.53,0,0,1-2.13-1,3.75,3.75,0,0,1-.76-2.39,4.29,4.29,0,0,1,.35-1.76,2.73,2.73,0,0,1,1-1.25A2.6,2.6,0,0,1,160,5.2a2.37,2.37,0,0,1,2,1V5.35h1v5.78a5.73,5.73,0,0,1-.32,2.21,2.3,2.3,0,0,1-1,1,3.47,3.47,0,0,1-1.7.38,3.21,3.21,0,0,1-1.93-.54A1.8,1.8,0,0,1,157.34,12.59Zm.94-4a2.86,2.86,0,0,0,.52,1.92,1.63,1.63,0,0,0,1.31.61,1.67,1.67,0,0,0,1.31-.6A2.9,2.9,0,0,0,162,8.63a2.74,2.74,0,0,0-.55-1.85,1.67,1.67,0,0,0-1.31-.63,1.66,1.66,0,0,0-1.29.62,2.7,2.7,0,0,0-.52,1.8Z"/><path class="cls-2" d="M164.73,4.11V2.8h1.13V4.11Zm0,7.93V5.35h1.13V12Z"/><path class="cls-2" d="M170,11l.16,1a4.11,4.11,0,0,1-.85.1,2,2,0,0,1-1-.19,1,1,0,0,1-.48-.51,4.06,4.06,0,0,1-.14-1.34V6.23h-.83V5.35h.83V3.69L168.84,3V5.35H170v.88h-1.1v3.91a1.84,1.84,0,0,0,.06.62.41.41,0,0,0,.19.22.66.66,0,0,0,.39.09A3.59,3.59,0,0,0,170,11Z"/><path class="cls-2" d="M175.53,11.21a4.25,4.25,0,0,1-1.21.76,3.58,3.58,0,0,1-1.25.22,2.41,2.41,0,0,1-1.69-.54,1.74,1.74,0,0,1-.6-1.38,1.8,1.8,0,0,1,.23-.9,1.91,1.91,0,0,1,.58-.65,2.76,2.76,0,0,1,.82-.37,8.35,8.35,0,0,1,1-.17,11.4,11.4,0,0,0,2-.39v-.3a1.23,1.23,0,0,0-.32-1,1.94,1.94,0,0,0-1.29-.39,2,2,0,0,0-1.18.28,1.71,1.71,0,0,0-.56,1l-1-.13a2.59,2.59,0,0,1,.5-1.14,2.09,2.09,0,0,1,1-.68A4.48,4.48,0,0,1,174,5.2a3.87,3.87,0,0,1,1.39.2,1.94,1.94,0,0,1,.79.5,2,2,0,0,1,.35.77,8.34,8.34,0,0,1,0,1V9.23a14.8,14.8,0,0,0,.08,2,2.6,2.6,0,0,0,.28.81h-1.18A2.35,2.35,0,0,1,175.53,11.21Zm-.09-2.53a8.43,8.43,0,0,1-1.85.43,4.26,4.26,0,0,0-1,.22,1,1,0,0,0-.45.37,1,1,0,0,0-.16.54,1,1,0,0,0,.35.76,1.48,1.48,0,0,0,1,.3A2.28,2.28,0,0,0,174.5,11a1.77,1.77,0,0,0,.75-.78,2.76,2.76,0,0,0,.18-1.14Z"/><path class="cls-2" d="M178.32,12V2.8h1.13V12Z"/><path class="cls-2" d="M191.53,8.8l1.22.31a4.18,4.18,0,0,1-1.39,2.29,3.78,3.78,0,0,1-2.44.79,4.29,4.29,0,0,1-2.42-.61,3.74,3.74,0,0,1-1.43-1.76,6.15,6.15,0,0,1-.49-2.47,5.37,5.37,0,0,1,.56-2.52A3.72,3.72,0,0,1,186.7,3.2a4.6,4.6,0,0,1,2.24-.56,3.76,3.76,0,0,1,2.33.71,3.69,3.69,0,0,1,1.32,2l-1.2.29a3,3,0,0,0-.94-1.47,2.49,2.49,0,0,0-1.53-.46,3,3,0,0,0-1.78.51,2.75,2.75,0,0,0-1,1.37,5.61,5.61,0,0,0-.29,1.77,5.38,5.38,0,0,0,.35,2.06,2.47,2.47,0,0,0,1.07,1.31,3,3,0,0,0,1.56.44,2.58,2.58,0,0,0,1.74-.6A3,3,0,0,0,191.53,8.8Z"/><path class="cls-2" d="M193.69,8.69a3.4,3.4,0,0,1,1-2.75,3.32,3.32,0,0,1,4.36.16,3.46,3.46,0,0,1,.87,2.5,4.72,4.72,0,0,1-.38,2,2.91,2.91,0,0,1-1.13,1.15,3.42,3.42,0,0,1-1.62.41,3,3,0,0,1-2.27-.9A3.59,3.59,0,0,1,193.69,8.69Zm1.16,0a2.91,2.91,0,0,0,.56,1.93,1.81,1.81,0,0,0,1.41.63,1.79,1.79,0,0,0,1.41-.64,3,3,0,0,0,.56-2,2.82,2.82,0,0,0-.57-1.88,1.8,1.8,0,0,0-1.4-.64,1.82,1.82,0,0,0-1.41.64A2.81,2.81,0,0,0,194.85,8.69Z"/><path class="cls-2" d="M201.28,12V5.35h1v1a2.39,2.39,0,0,1,2.13-1.1,3,3,0,0,1,1.11.21,1.87,1.87,0,0,1,.76.57,2.31,2.31,0,0,1,.35.84A5.33,5.33,0,0,1,206.72,8v4.12h-1.14V8a3.06,3.06,0,0,0-.13-1A1.1,1.1,0,0,0,205,6.4a1.48,1.48,0,0,0-.79-.2,1.79,1.79,0,0,0-1.25.46,2.24,2.24,0,0,0-.52,1.74v3.66Z"/><path class="cls-2" d="M212.82,9.58l1.12.15a2.94,2.94,0,0,1-.94,1.8,2.75,2.75,0,0,1-1.85.66,2.91,2.91,0,0,1-2.21-.9,3.64,3.64,0,0,1-.83-2.57,4.44,4.44,0,0,1,.36-1.9,2.45,2.45,0,0,1,1.09-1.22,3.2,3.2,0,0,1,1.6-.4,2.77,2.77,0,0,1,1.78.55,2.49,2.49,0,0,1,.89,1.56l-1.1.17a1.82,1.82,0,0,0-.56-1,1.42,1.42,0,0,0-1-.34,1.75,1.75,0,0,0-1.39.61,2.86,2.86,0,0,0-.54,1.94,3,3,0,0,0,.52,2,1.67,1.67,0,0,0,1.35.61,1.52,1.52,0,0,0,1.11-.41A2,2,0,0,0,212.82,9.58Z"/><path class="cls-2" d="M214.91,4.11V2.8H216V4.11Zm0,7.93V5.35H216V12Z"/><path class="cls-2" d="M222.35,9.88l1.17.15a2.89,2.89,0,0,1-1,1.59,3.48,3.48,0,0,1-4.25-.34,3.51,3.51,0,0,1-.86-2.53,3.69,3.69,0,0,1,.87-2.62,3,3,0,0,1,2.26-.93,2.86,2.86,0,0,1,2.19.91,3.64,3.64,0,0,1,.85,2.57V9h-5a2.61,2.61,0,0,0,.62,1.69,1.84,1.84,0,0,0,1.4.58,1.74,1.74,0,0,0,1.06-.32A2.13,2.13,0,0,0,222.35,9.88Zm-3.72-1.83h3.73a2.3,2.3,0,0,0-.42-1.27,1.87,1.87,0,0,0-2.65-.19l-.07.06A2,2,0,0,0,218.63,8.05Z"/><path class="cls-2" d="M224.93,12V5.35h1v1a2.75,2.75,0,0,1,.72-.94,1.33,1.33,0,0,1,.73-.22,2.33,2.33,0,0,1,1.17.36l-.39,1a1.74,1.74,0,0,0-.83-.24,1,1,0,0,0-.67.22,1.15,1.15,0,0,0-.42.62,4,4,0,0,0-.19,1.32V12Z"/><path class="cls-2" d="M229,12.59l1.11.16a1,1,0,0,0,.38.75,1.87,1.87,0,0,0,1.15.31,2,2,0,0,0,1.22-.31,1.62,1.62,0,0,0,.58-.89,7.84,7.84,0,0,0,.08-1.45,2.34,2.34,0,0,1-1.85.88,2.54,2.54,0,0,1-2.14-1,3.8,3.8,0,0,1-.75-2.39,4.28,4.28,0,0,1,.34-1.76,2.73,2.73,0,0,1,1-1.25,2.61,2.61,0,0,1,1.54-.44,2.44,2.44,0,0,1,2,1V5.35h1v5.78a5.38,5.38,0,0,1-.32,2.21,2.3,2.3,0,0,1-1,1,3.47,3.47,0,0,1-1.7.38,3.24,3.24,0,0,1-1.94-.54A1.82,1.82,0,0,1,229,12.59Zm.94-4a2.92,2.92,0,0,0,.52,1.92,1.65,1.65,0,0,0,1.31.61,1.67,1.67,0,0,0,1.31-.6,2.79,2.79,0,0,0,.53-1.89,2.73,2.73,0,0,0-.54-1.85,1.69,1.69,0,0,0-1.32-.63,1.64,1.64,0,0,0-1.28.62,2.68,2.68,0,0,0-.47,1.8Z"/><path class="cls-2" d="M241,9.88l1.18.15a2.89,2.89,0,0,1-1,1.59,3.46,3.46,0,0,1-4.24-.34A3.47,3.47,0,0,1,236,8.75a3.69,3.69,0,0,1,.87-2.62,2.94,2.94,0,0,1,2.25-.93,2.83,2.83,0,0,1,2.19.91,3.64,3.64,0,0,1,.85,2.57V9h-5a2.61,2.61,0,0,0,.62,1.69,1.88,1.88,0,0,0,1.4.58,1.79,1.79,0,0,0,1.07-.32A2.25,2.25,0,0,0,241,9.88Zm-3.75-1.83H241a2.39,2.39,0,0,0-.43-1.27,1.8,1.8,0,0,0-1.41-.65,1.77,1.77,0,0,0-1.31.52A2.1,2.1,0,0,0,237.27,8.05Z"/><path d="M24.07,3.07h2.26l3.26,5.66V3.07h1.73v8.58H29.38L25.8,5.55v6.1H24.07Z"/><path d="M36,11.79a4,4,0,0,1-1.31-.22,2.8,2.8,0,0,1-1-.64,2.68,2.68,0,0,1-.69-1,3.35,3.35,0,0,1-.25-1.35V8.5A3.42,3.42,0,0,1,33,7.15a2.92,2.92,0,0,1,.69-1,3,3,0,0,1,1-.65,3.3,3.3,0,0,1,1.27-.24,3.66,3.66,0,0,1,1.16.19,2.61,2.61,0,0,1,1,.57,2.84,2.84,0,0,1,.67,1A3.73,3.73,0,0,1,39,8.43v.48H34.48a1.79,1.79,0,0,0,.44,1.21,1.43,1.43,0,0,0,1.12.43,1.51,1.51,0,0,0,.92-.24,1,1,0,0,0,.38-.64H39a2.25,2.25,0,0,1-.93,1.57A3.57,3.57,0,0,1,36,11.79Zm1.32-3.95a1.57,1.57,0,0,0-.4-1.06,1.31,1.31,0,0,0-1-.35,1.38,1.38,0,0,0-1,.37,1.71,1.71,0,0,0-.47,1Z"/><path d="M39.59,5.38h1.82L42.53,9.6l1.21-4.22h1.43l1.1,4.22,1.19-4.22h1.67l-2,6.27H45.44L44.38,7.72l-1.15,3.93H41.5Z"/><path d="M52.5,11.79a3.19,3.19,0,0,1-2-.54,2,2,0,0,1-.76-1.56h1.62a1.13,1.13,0,0,0,.3.66,1.09,1.09,0,0,0,.81.24,1.24,1.24,0,0,0,.74-.18.63.63,0,0,0,.24-.51.53.53,0,0,0-.29-.49,2.91,2.91,0,0,0-1-.26,8.12,8.12,0,0,1-1.06-.24,2.23,2.23,0,0,1-.72-.38A1.23,1.23,0,0,1,50,8a2.33,2.33,0,0,1-.13-.79,1.71,1.71,0,0,1,.21-.86,2.07,2.07,0,0,1,.56-.62,2.48,2.48,0,0,1,.79-.36,3.59,3.59,0,0,1,.93-.12,4.21,4.21,0,0,1,1,.11,2.5,2.5,0,0,1,.8.33,1.67,1.67,0,0,1,.55.6,2.22,2.22,0,0,1,.28.91h-1.6a.83.83,0,0,0-.3-.56,1.08,1.08,0,0,0-.68-.19,1,1,0,0,0-.65.18.57.57,0,0,0-.24.47.48.48,0,0,0,.27.44,3.14,3.14,0,0,0,.94.23,8,8,0,0,1,1,.22,2.61,2.61,0,0,1,.77.35,1.56,1.56,0,0,1,.46.56,1.94,1.94,0,0,1,.16.84,1.78,1.78,0,0,1-.7,1.54A3.15,3.15,0,0,1,52.5,11.79Z"/><path d="M65.41,9.9l1.43,1.75H64.62L64,10.89a4.69,4.69,0,0,1-1,.63,3.31,3.31,0,0,1-1.38.25,3.72,3.72,0,0,1-1.19-.17,2.49,2.49,0,0,1-.91-.5,2.18,2.18,0,0,1-.6-.78,2.52,2.52,0,0,1-.21-1.05,2.21,2.21,0,0,1,.52-1.5,4.18,4.18,0,0,1,1.39-1,3.39,3.39,0,0,1-.46-.85,2.52,2.52,0,0,1-.14-.77,2.08,2.08,0,0,1,.2-.92,2,2,0,0,1,.56-.68,2.27,2.27,0,0,1,.79-.4,3.45,3.45,0,0,1,1-.14,2.9,2.9,0,0,1,.89.13,2.22,2.22,0,0,1,.74.36,1.76,1.76,0,0,1,.51.61,1.71,1.71,0,0,1,.19.82,1.87,1.87,0,0,1-.45,1.26,3.35,3.35,0,0,1-1.3.89L64.5,8.7l.77-1.5H66.8Zm-3.5.46a1.44,1.44,0,0,0,.65-.15,1.56,1.56,0,0,0,.54-.43l-1.64-2a2.41,2.41,0,0,0-.63.49,1.18,1.18,0,0,0-.25.8,1.25,1.25,0,0,0,.34.93A1.34,1.34,0,0,0,61.91,10.36Zm-.16-5.22a1.11,1.11,0,0,0,.15.55,3.63,3.63,0,0,0,.43.6,2.17,2.17,0,0,0,.78-.55A1.09,1.09,0,0,0,63.36,5a.78.78,0,0,0-.21-.56.74.74,0,0,0-.55-.21.81.81,0,0,0-.6.23A.86.86,0,0,0,61.75,5.14Z"/><path d="M70.82,3.07h3a3.75,3.75,0,0,1,2.42.69,2.46,2.46,0,0,1,.85,2.05v.05A2.86,2.86,0,0,1,76.84,7a2.31,2.31,0,0,1-.65.83,2.71,2.71,0,0,1-1,.5,4.87,4.87,0,0,1-1.32.16H72.76v3.12H70.82Zm2.92,4.11a1.56,1.56,0,0,0,1.09-.33,1.27,1.27,0,0,0,.36-1v0a1.16,1.16,0,0,0-.38-1,1.75,1.75,0,0,0-1.07-.29h-1V7.18Z"/><path d="M80.41,11.79a2.55,2.55,0,0,1-.84-.14,1.79,1.79,0,0,1-.68-.43,2,2,0,0,1-.45-.74,3.07,3.07,0,0,1-.16-1.06v-4H80v3.8a1.41,1.41,0,0,0,.28.94,1,1,0,0,0,.82.32A1.35,1.35,0,0,0,82,10.1a1.33,1.33,0,0,0,.37-1V5.38h1.73v6.27H82.4v-1a2,2,0,0,1-.72.8A2.32,2.32,0,0,1,80.41,11.79Z"/><path d="M89.56,11.79a2.34,2.34,0,0,1-1.25-.32,1.9,1.9,0,0,1-.76-.81v1H85.81V2.53h1.74V6.36a2.38,2.38,0,0,1,.79-.79,2.23,2.23,0,0,1,1.22-.34,2.72,2.72,0,0,1,1.07.21,2.53,2.53,0,0,1,.87.62,2.85,2.85,0,0,1,.58,1,4.17,4.17,0,0,1,.21,1.38v.1a4.17,4.17,0,0,1-.21,1.38,2.94,2.94,0,0,1-.57,1,2.46,2.46,0,0,1-.87.64A2.74,2.74,0,0,1,89.56,11.79ZM89,10.43a1.32,1.32,0,0,0,1.1-.48,2.14,2.14,0,0,0,.39-1.4V8.46A2.12,2.12,0,0,0,90.11,7a1.5,1.5,0,0,0-2.19,0,2.06,2.06,0,0,0-.43,1.43v.09A2.06,2.06,0,0,0,87.91,10,1.42,1.42,0,0,0,89,10.43Z"/><path d="M93.65,2.53h1.73v9.12H93.65Z"/><path d="M98,4.53a1,1,0,0,1-.7-.27A.9.9,0,0,1,97,3.58a.9.9,0,0,1,.28-.68,1,1,0,0,1,.7-.27,1,1,0,0,1,.71.27.94.94,0,0,1,0,1.36A1,1,0,0,1,98,4.53Zm-.85.85h1.73v6.27H97.15Z"/><path d="M102.9,11.79a3.19,3.19,0,0,1-2-.54,2,2,0,0,1-.76-1.56h1.62a1.13,1.13,0,0,0,.3.66,1.09,1.09,0,0,0,.81.24,1.24,1.24,0,0,0,.74-.18.63.63,0,0,0,.24-.51.53.53,0,0,0-.29-.49,2.91,2.91,0,0,0-1-.26,8.12,8.12,0,0,1-1.06-.24,2.23,2.23,0,0,1-.72-.38,1.23,1.23,0,0,1-.41-.55,2.33,2.33,0,0,1-.13-.79,1.71,1.71,0,0,1,.21-.86,2.07,2.07,0,0,1,.56-.62,2.48,2.48,0,0,1,.79-.36,3.59,3.59,0,0,1,.93-.12,4.21,4.21,0,0,1,1,.11,2.5,2.5,0,0,1,.8.33,1.77,1.77,0,0,1,.55.6,2.22,2.22,0,0,1,.28.91h-1.6a.87.87,0,0,0-.3-.56,1.31,1.31,0,0,0-1.34,0,.58.58,0,0,0-.23.47.48.48,0,0,0,.27.44,3.14,3.14,0,0,0,.94.23,8,8,0,0,1,1.05.22,2.61,2.61,0,0,1,.77.35,1.56,1.56,0,0,1,.46.56,1.94,1.94,0,0,1,.16.84,1.78,1.78,0,0,1-.7,1.54A3.15,3.15,0,0,1,102.9,11.79Z"/><path d="M106.79,2.53h1.74V6.37a2.16,2.16,0,0,1,.74-.8,2.59,2.59,0,0,1,2.15-.19,1.83,1.83,0,0,1,.67.43,1.94,1.94,0,0,1,.43.76,3.25,3.25,0,0,1,.16,1.09v4h-1.74V7.91a1.4,1.4,0,0,0-.27-1,1,1,0,0,0-.84-.31,1.32,1.32,0,0,0-.93.34,1.35,1.35,0,0,0-.37,1v3.62h-1.74Z"/><path d="M115.21,4.53a1,1,0,0,1-.7-.27.9.9,0,0,1-.28-.68.9.9,0,0,1,.28-.68,1,1,0,0,1,.7-.27,1,1,0,0,1,.71.27.94.94,0,0,1,0,1.36A1,1,0,0,1,115.21,4.53Zm-.85.85h1.73v6.27h-1.73Z"/><path d="M117.83,5.38h1.74v1a2.16,2.16,0,0,1,.74-.8,2.59,2.59,0,0,1,2.15-.19,1.83,1.83,0,0,1,.67.43,1.94,1.94,0,0,1,.43.76,3.25,3.25,0,0,1,.16,1.09v4H122V7.91a1.4,1.4,0,0,0-.27-1,1,1,0,0,0-.83-.31,1.33,1.33,0,0,0-.94.34,1.35,1.35,0,0,0-.37,1v3.62h-1.74Z"/><path d="M128.13,14a4.77,4.77,0,0,1-1.32-.16,2.68,2.68,0,0,1-.93-.44,1.85,1.85,0,0,1-.59-.69,2.44,2.44,0,0,1-.28-.89h1.73a1.08,1.08,0,0,0,.4.66,1.61,1.61,0,0,0,1,.25,1.59,1.59,0,0,0,1.19-.4,1.54,1.54,0,0,0,.4-1.14v-1a2.73,2.73,0,0,1-.33.45,2,2,0,0,1-.46.36,2.12,2.12,0,0,1-.57.27,2.07,2.07,0,0,1-.66.1,2.72,2.72,0,0,1-1.07-.21,2.47,2.47,0,0,1-.86-.6,2.79,2.79,0,0,1-.59-.94A3.52,3.52,0,0,1,125,8.38V8.29a3.49,3.49,0,0,1,.21-1.23,2.85,2.85,0,0,1,.58-1,2.63,2.63,0,0,1,2-.86,2.3,2.3,0,0,1,1.24.3,2.24,2.24,0,0,1,.75.78V5.38h1.73v5.78a2.59,2.59,0,0,1-.89,2.11A3.76,3.76,0,0,1,128.13,14Zm.09-3.91a1.43,1.43,0,0,0,1.11-.46,1.73,1.73,0,0,0,.44-1.25V8.26a1.86,1.86,0,0,0-.4-1.25,1.42,1.42,0,0,0-1.12-.46,1.37,1.37,0,0,0-1.12.48,1.89,1.89,0,0,0-.39,1.25v.09a1.74,1.74,0,0,0,.42,1.24A1.37,1.37,0,0,0,128.22,10.06Z"/></g></g></svg>