<?xml version="1.0" encoding="utf-8"?>
<!-- Generator: Adobe Illustrator 23.0.1, SVG Export Plug-In . SVG Version: 6.00 Build 0)  -->
<svg version="1.1" id="Layer_1" xmlns="http://www.w3.org/2000/svg" xmlns:xlink="http://www.w3.org/1999/xlink" x="0px" y="0px"
	 viewBox="0 0 581.5 201.4" style="enable-background:new 0 0 581.5 201.4;" xml:space="preserve">
<style type="text/css">
	.st0{fill:url(#SVGID_1_);}
	.st1{fill:url(#SVGID_2_);}
	.st2{fill:#FFFFFF;}
	.st3{fill:#085AFF;}
</style>
<title>content-left</title>
<g>
	<g id="Layer_1-2">
		
			<linearGradient id="SVGID_1_" gradientUnits="userSpaceOnUse" x1="19" y1="174.21" x2="218.53" y2="174.21" gradientTransform="matrix(1 0 0 -1 0 210)">
			<stop  offset="0" style="stop-color:#F9CA87"/>
			<stop  offset="1" style="stop-color:#F06E7C"/>
		</linearGradient>
		<rect x="19" y="21" class="st0" width="199.5" height="29.6"/>
		
			<linearGradient id="SVGID_2_" gradientUnits="userSpaceOnUse" x1="19" y1="140.21" x2="148.39" y2="140.21" gradientTransform="matrix(1 0 0 -1 0 210)">
			<stop  offset="0" style="stop-color:#F9CA87"/>
			<stop  offset="1" style="stop-color:#F06E7C"/>
		</linearGradient>
		<rect x="19" y="55" class="st1" width="129.4" height="29.6"/>
		<path class="st2" d="M27.2,43.7l-5.1-19.2h2.6l2.9,12.6c0.3,1.3,0.6,2.6,0.8,3.9c0.5-2,0.8-3.2,0.9-3.5l3.7-13h3l2.8,9.7
			c0.7,2.2,1.2,4.5,1.5,6.8c0.2-1.2,0.6-2.6,1-4.2l3-12.3h2.5l-5.2,19.2h-2.4L35,29.1c-0.3-1.2-0.5-2-0.6-2.2
			c-0.2,0.9-0.4,1.6-0.6,2.2l-4,14.6H27.2z"/>
		<path class="st2" d="M57.9,39.2l2.4,0.3c-0.3,1.3-1.1,2.5-2.1,3.3c-1.2,0.8-2.6,1.2-4,1.2c-1.8,0.1-3.6-0.6-4.8-1.9
			c-1.3-1.5-1.9-3.3-1.8-5.3c-0.1-2,0.5-3.9,1.8-5.4c1.2-1.3,2.9-2,4.7-1.9c1.7-0.1,3.4,0.6,4.6,1.9c1.3,1.5,1.9,3.4,1.8,5.3
			c0,0.1,0,0.3,0,0.6H50c0,1.3,0.5,2.5,1.3,3.5c0.8,0.8,1.8,1.2,2.9,1.2c0.8,0,1.6-0.2,2.2-0.7C57.1,40.9,57.6,40.1,57.9,39.2z
			 M50.2,35.4h7.8c0-0.9-0.3-1.9-0.9-2.6c-0.7-0.9-1.8-1.4-2.9-1.4c-1,0-2,0.4-2.7,1.1C50.6,33.3,50.2,34.4,50.2,35.4z"/>
		<path class="st2" d="M79.8,42c-0.7,0.7-1.6,1.2-2.5,1.6c-0.8,0.3-1.7,0.5-2.6,0.5c-1.3,0.1-2.5-0.3-3.5-1.1
			c-0.8-0.7-1.3-1.8-1.2-2.9c0-1.3,0.6-2.5,1.7-3.2c0.5-0.3,1.1-0.6,1.7-0.8c0.7-0.2,1.4-0.3,2.1-0.4c1.4-0.1,2.8-0.4,4.2-0.8
			c0-0.3,0-0.5,0-0.6c0.1-0.7-0.2-1.5-0.7-2c-0.8-0.6-1.7-0.9-2.7-0.8c-0.8-0.1-1.7,0.1-2.4,0.5c-0.6,0.5-1,1.3-1.2,2.1l-2.3-0.3
			c0.1-0.9,0.5-1.7,1-2.4c0.6-0.6,1.3-1.1,2.1-1.4c1-0.3,2.1-0.5,3.1-0.5c1,0,2,0.1,2.9,0.4c0.6,0.2,1.2,0.6,1.6,1.1
			c0.4,0.5,0.6,1,0.7,1.6C82,33.3,82,34,82,34.8v3.1c0,1.4,0,2.8,0.2,4.1c0.1,0.6,0.3,1.2,0.6,1.7h-2.5C80,43.2,79.8,42.6,79.8,42z
			 M79.6,36.7c-1.2,0.4-2.5,0.7-3.8,0.9c-0.7,0.1-1.4,0.2-2.1,0.5c-0.4,0.2-0.7,0.4-0.9,0.8c-0.6,0.9-0.4,2,0.4,2.7
			c0.6,0.5,1.3,0.7,2.1,0.6c0.8,0,1.7-0.2,2.4-0.6c0.7-0.4,1.2-0.9,1.6-1.6c0.3-0.8,0.4-1.6,0.4-2.4V36.7z"/>
		<path class="st2" d="M85.6,43.7V29.8h2.1v2.1c0.4-0.7,0.9-1.4,1.5-1.9c0.4-0.3,1-0.5,1.5-0.5c0.9,0,1.7,0.3,2.4,0.8l-0.8,2.2
			c-0.5-0.3-1.1-0.5-1.7-0.5c-0.5,0-1,0.2-1.4,0.5c-0.4,0.3-0.7,0.8-0.9,1.3c-0.2,0.9-0.4,1.8-0.3,2.7v7.3H85.6z"/>
		<path class="st2" d="M104.1,39.2l2.4,0.3c-0.3,1.3-1.1,2.5-2.1,3.3c-1.2,0.8-2.6,1.2-4,1.2c-1.8,0.1-3.6-0.6-4.8-1.9
			c-1.3-1.5-1.9-3.3-1.8-5.3c-0.1-2,0.5-3.9,1.8-5.4c1.2-1.3,2.9-2,4.7-1.9c1.7-0.1,3.4,0.6,4.6,1.9c1.3,1.5,1.9,3.4,1.8,5.3
			c0,0.1,0,0.3,0,0.6H96.2c0,1.3,0.5,2.5,1.3,3.5c0.8,0.8,1.8,1.2,2.9,1.2c0.8,0,1.6-0.2,2.2-0.7C103.3,40.9,103.8,40.1,104.1,39.2z
			 M96.3,35.4h7.8c0-0.9-0.3-1.9-0.9-2.6c-0.7-0.9-1.8-1.4-2.9-1.4c-1,0-2,0.4-2.7,1.1C96.8,33.3,96.4,34.4,96.3,35.4z"/>
		<path class="st2" d="M116.9,43.7V24.5h2.3v6.9c1-1.2,2.6-1.9,4.2-1.9c0.9,0,1.9,0.2,2.7,0.6c0.7,0.4,1.3,1,1.6,1.7
			c0.4,1,0.5,2.1,0.5,3.1v8.8h-2.4v-8.8c0.1-0.9-0.2-1.8-0.8-2.6c-0.6-0.6-1.4-0.8-2.2-0.8c-0.7,0-1.4,0.2-2,0.5
			c-0.6,0.3-1,0.8-1.3,1.5c-0.3,0.8-0.4,1.7-0.4,2.6v7.6H116.9z"/>
		<path class="st2" d="M140.9,42c-0.7,0.7-1.6,1.2-2.5,1.6c-0.8,0.3-1.7,0.5-2.6,0.5c-1.3,0.1-2.5-0.3-3.5-1.1
			c-0.8-0.7-1.3-1.8-1.2-2.8c0-0.7,0.2-1.3,0.5-1.9c0.3-0.5,0.7-1,1.2-1.4c0.5-0.3,1.1-0.6,1.7-0.8c0.7-0.2,1.4-0.3,2.1-0.4
			c1.4-0.1,2.8-0.4,4.2-0.8c0-0.3,0-0.5,0-0.6c0.1-0.7-0.2-1.5-0.7-2c-0.8-0.6-1.7-0.9-2.7-0.8c-0.9-0.1-1.7,0.1-2.5,0.6
			c-0.6,0.5-1,1.3-1.2,2.1l-2.3-0.3c0.1-0.9,0.5-1.7,1-2.4c0.6-0.7,1.3-1.2,2.1-1.4c1-0.3,2.1-0.5,3.2-0.5c1,0,2,0.1,2.9,0.4
			c0.6,0.2,1.2,0.6,1.6,1.1c0.4,0.5,0.6,1,0.7,1.6c0.1,0.7,0.1,1.4,0.1,2.2v3.1c0,1.4,0,2.8,0.2,4.1c0.1,0.6,0.3,1.1,0.6,1.7h-2.5
			C141.1,43.2,140.9,42.6,140.9,42z M140.7,36.7c-1.2,0.4-2.5,0.7-3.8,0.9c-0.7,0.1-1.4,0.2-2.1,0.5c-0.4,0.2-0.7,0.4-0.9,0.8
			c-0.2,0.3-0.3,0.7-0.3,1.1c0,0.6,0.2,1.2,0.7,1.6c0.6,0.5,1.3,0.7,2.1,0.6c0.8,0,1.7-0.2,2.4-0.6c0.7-0.4,1.2-0.9,1.6-1.6
			c0.3-0.8,0.4-1.6,0.4-2.4V36.7z"/>
		<path class="st2" d="M146.7,49V29.8h2.1v1.8c0.4-0.7,1-1.2,1.7-1.6c0.7-0.4,1.5-0.6,2.3-0.5c1.1,0,2.2,0.3,3.1,0.9
			c0.9,0.6,1.7,1.6,2.1,2.6c0.5,1.2,0.7,2.4,0.7,3.7c0,1.3-0.2,2.6-0.8,3.8c-0.9,2.1-3,3.5-5.3,3.5c-0.7,0-1.5-0.2-2.1-0.5
			c-0.6-0.3-1.1-0.7-1.5-1.3V49L146.7,49z M148.8,36.8c-0.1,1.4,0.3,2.8,1.1,4c0.6,0.8,1.6,1.3,2.6,1.3c1.1,0,2-0.5,2.7-1.3
			c0.8-1.2,1.2-2.7,1.1-4.1c0.1-1.4-0.3-2.8-1.1-4c-0.6-0.8-1.6-1.3-2.6-1.3c-1.1,0-2,0.5-2.7,1.4C149.2,34,148.7,35.4,148.8,36.8z"
			/>
		<path class="st2" d="M161.6,49V29.8h2.1v1.8c0.4-0.7,1-1.2,1.7-1.6c0.7-0.4,1.5-0.6,2.3-0.5c1.1,0,2.2,0.3,3.1,0.9
			c0.9,0.6,1.7,1.5,2.1,2.6c0.5,1.2,0.7,2.4,0.7,3.7c0,1.3-0.2,2.6-0.8,3.8c-0.9,2.1-3,3.5-5.3,3.5c-0.7,0-1.5-0.2-2.1-0.5
			c-0.6-0.3-1.1-0.7-1.5-1.2v6.8L161.6,49z M163.8,36.8c-0.1,1.4,0.3,2.8,1.1,4c1.1,1.5,3.3,1.7,4.7,0.6c0.2-0.2,0.4-0.4,0.6-0.6
			c0.8-1.2,1.2-2.7,1.1-4.1c0.1-1.4-0.3-2.8-1.1-4c-0.6-0.8-1.6-1.3-2.6-1.3c-1.1,0-2,0.5-2.7,1.4C164.1,34,163.7,35.4,163.8,36.8z"
			/>
		<path class="st2" d="M176.4,49.1l-0.3-2.2c0.4,0.1,0.9,0.2,1.4,0.2c0.4,0,0.9-0.1,1.3-0.3c0.3-0.2,0.6-0.4,0.8-0.7
			c0.3-0.6,0.5-1.2,0.7-1.8c0-0.1,0.1-0.3,0.2-0.6l-5.3-13.9h2.5l2.9,8c0.4,1,0.7,2.1,1,3.2c0.3-1.1,0.6-2.1,1-3.2l3-8.1h2.4
			L182.6,44c-0.4,1.1-0.8,2.1-1.3,3.2c-0.3,0.7-0.8,1.3-1.4,1.7c-0.6,0.4-1.3,0.6-1.9,0.5C177.4,49.4,176.9,49.3,176.4,49.1z"/>
		<path class="st2" d="M202.5,41.6l0.3,2.1c-0.6,0.1-1.2,0.2-1.8,0.2c-0.7,0-1.4-0.1-2-0.4c-0.4-0.2-0.8-0.6-1-1.1
			c-0.2-0.9-0.3-1.8-0.3-2.8v-8h-1.7v-1.8h1.7v-3.4l2.4-1.4v4.8h2.4v1.8h-2.4v8.1c0,0.4,0,0.9,0.1,1.3c0.1,0.2,0.2,0.4,0.4,0.5
			c0.2,0.1,0.5,0.2,0.8,0.2C201.8,41.7,202.2,41.7,202.5,41.6z"/>
		<path class="st2" d="M203.9,36.8c0-2.6,0.7-4.5,2.1-5.7c1.2-1,2.8-1.6,4.4-1.5c1.8-0.1,3.5,0.6,4.7,1.9c1.3,1.4,2,3.3,1.9,5.2
			c0.1,1.4-0.2,2.9-0.8,4.2c-0.5,1-1.3,1.8-2.3,2.4c-1,0.6-2.2,0.9-3.4,0.9c-1.8,0.1-3.5-0.6-4.7-1.9
			C204.5,40.7,203.8,38.7,203.9,36.8z M206.3,36.8c-0.1,1.4,0.3,2.9,1.2,4c1.4,1.6,3.8,1.8,5.5,0.4c0.1-0.1,0.3-0.3,0.4-0.4
			c0.9-1.2,1.3-2.6,1.2-4.1c0.1-1.4-0.3-2.8-1.2-3.9c-1.4-1.6-3.9-1.8-5.5-0.4c-0.1,0.1-0.3,0.2-0.4,0.4
			C206.7,33.9,206.2,35.3,206.3,36.8L206.3,36.8z"/>
		<path class="st2" d="M23.6,75.9V56.7h2.4v6.9c1-1.2,2.6-1.9,4.2-1.9c0.9,0,1.9,0.2,2.7,0.6c0.7,0.4,1.3,1,1.6,1.7
			c0.4,1,0.5,2.1,0.5,3.1v8.8h-2.4v-8.8c0.1-0.9-0.2-1.8-0.8-2.6c-0.6-0.6-1.4-0.8-2.2-0.8c-0.7,0-1.4,0.2-2,0.5
			c-0.6,0.3-1,0.8-1.3,1.4c-0.3,0.8-0.4,1.7-0.4,2.6v7.6L23.6,75.9z"/>
		<path class="st2" d="M48,71.4l2.4,0.3c-0.3,1.3-1.1,2.5-2.2,3.3c-1.2,0.8-2.6,1.2-4,1.2c-1.8,0.1-3.6-0.6-4.8-1.9
			c-1.3-1.5-1.9-3.3-1.8-5.3c-0.1-2,0.5-3.9,1.8-5.4c1.2-1.3,2.9-2,4.7-1.9c1.7-0.1,3.4,0.6,4.5,1.9c1.3,1.5,1.9,3.4,1.8,5.3
			c0,0.1,0,0.4,0,0.6H40.1c0,1.3,0.5,2.5,1.3,3.5c0.7,0.8,1.8,1.2,2.9,1.2c0.8,0,1.6-0.2,2.2-0.7C47.2,73,47.7,72.3,48,71.4z
			 M40.2,67.6H48c0-0.9-0.3-1.8-0.9-2.6c-0.7-0.9-1.8-1.4-2.9-1.4c-1,0-2,0.4-2.7,1.1C40.7,65.5,40.3,66.5,40.2,67.6z"/>
		<path class="st2" d="M53.3,75.9V56.7h2.4v19.2H53.3z"/>
		<path class="st2" d="M59.3,81.2V62h2.2v1.8c0.4-0.7,1-1.2,1.7-1.6c0.7-0.4,1.5-0.6,2.3-0.5c1.1,0,2.2,0.3,3.1,0.9
			c0.9,0.6,1.6,1.5,2,2.6c0.5,1.2,0.7,2.4,0.7,3.7c0,1.3-0.2,2.6-0.8,3.8c-0.9,2.1-3,3.5-5.3,3.5c-0.7,0-1.5-0.2-2.1-0.5
			c-0.6-0.3-1.1-0.7-1.5-1.3v6.8L59.3,81.2z M61.5,69c-0.1,1.4,0.3,2.8,1.1,4c0.6,0.8,1.6,1.3,2.6,1.3c1.1,0,2-0.5,2.7-1.3
			c0.8-1.2,1.3-2.7,1.1-4.1c0.1-1.4-0.3-2.8-1.1-4c-0.6-0.8-1.6-1.3-2.6-1.3c-1.1,0-2,0.5-2.7,1.4C61.8,66.1,61.4,67.5,61.5,69z"/>
		<path class="st2" d="M81.6,81.2L81.3,79c0.4,0.1,0.9,0.2,1.3,0.2c0.4,0,0.9,0,1.3-0.2c0.3-0.2,0.6-0.4,0.8-0.7
			c0.3-0.6,0.5-1.2,0.7-1.8c0-0.1,0.1-0.3,0.2-0.6L80.3,62h2.5l2.9,8c0.4,1,0.7,2.1,1,3.2c0.3-1.1,0.6-2.1,1-3.2l3-8.1h2.4
			l-5.3,14.2c-0.4,1.1-0.8,2.1-1.3,3.2C86.1,80,85.6,80.6,85,81c-0.6,0.4-1.3,0.6-1.9,0.5C82.5,81.5,82,81.4,81.6,81.2z"/>
		<path class="st2" d="M94.2,68.9c0-2.6,0.7-4.5,2.2-5.7c1.2-1,2.8-1.6,4.4-1.5c1.8-0.1,3.5,0.6,4.7,1.9c1.3,1.4,1.9,3.3,1.8,5.2
			c0.1,1.5-0.2,2.9-0.8,4.2c-0.5,1-1.3,1.8-2.3,2.4c-1,0.6-2.2,0.9-3.4,0.8c-1.8,0.1-3.5-0.6-4.7-1.9C94.7,72.8,94.1,70.9,94.2,68.9
			z M96.6,68.9c-0.1,1.4,0.3,2.9,1.2,4c1.4,1.6,3.8,1.8,5.5,0.4c0.1-0.1,0.3-0.3,0.4-0.4c0.9-1.2,1.3-2.6,1.2-4.1
			c0.1-1.4-0.3-2.8-1.2-3.9c-1.4-1.6-3.9-1.8-5.5-0.4c-0.1,0.1-0.3,0.2-0.4,0.4C96.9,66.1,96.5,67.5,96.6,68.9z"/>
		<path class="st2" d="M119.1,75.9v-2c-1,1.5-2.6,2.4-4.4,2.4c-0.8,0-1.6-0.2-2.3-0.5c-0.6-0.2-1.2-0.7-1.6-1.2
			c-0.4-0.5-0.6-1.1-0.7-1.8c-0.1-0.7-0.2-1.5-0.2-2.2V62h2.4v7.7c0,0.8,0,1.7,0.1,2.5c0.1,0.6,0.5,1.1,0.9,1.5
			c0.5,0.4,1.1,0.5,1.8,0.5c0.7,0,1.4-0.2,2-0.6c0.6-0.3,1.1-0.8,1.3-1.5c0.3-0.9,0.4-1.8,0.4-2.7V62h2.4v13.9L119.1,75.9z"/>
		<path class="st2" d="M125.6,75.9v-2.7h2.7v2.7H125.6z"/>
		<path class="st2" d="M133,75.9v-2.7h2.7v2.7H133z"/>
		<path class="st2" d="M140.4,75.9v-2.7h2.7v2.7H140.4z"/>
		<path class="st2" d="M40.6,128.2l3,0.8c-0.5,2.2-1.7,4.2-3.4,5.7c-1.7,1.3-3.8,2-6,2c-2.1,0.1-4.2-0.4-6-1.5
			c-1.6-1.1-2.8-2.6-3.5-4.4c-0.8-1.9-1.2-4-1.2-6.1c0-2.2,0.4-4.3,1.4-6.2c0.9-1.7,2.2-3.1,3.9-4c1.7-0.9,3.6-1.4,5.5-1.4
			c2.1-0.1,4.1,0.5,5.8,1.7c1.6,1.2,2.8,3,3.3,4.9l-3,0.7c-0.4-1.4-1.1-2.7-2.3-3.6c-1.1-0.8-2.5-1.2-3.8-1.2
			c-1.6-0.1-3.1,0.4-4.4,1.3c-1.2,0.8-2,2-2.5,3.4c-0.5,1.4-0.7,2.9-0.7,4.4c0,1.7,0.3,3.5,0.8,5.1c0.5,1.4,1.4,2.5,2.6,3.3
			c1.2,0.7,2.5,1.1,3.9,1.1c1.6,0,3.1-0.5,4.3-1.5C39.5,131.5,40.3,129.9,40.6,128.2z"/>
		<path class="st2" d="M47,136.3v-22.9h2.8v8.2c1.2-1.5,3.1-2.3,5-2.3c1.1,0,2.2,0.2,3.2,0.7c0.9,0.4,1.5,1.1,2,2
			c0.4,1.2,0.6,2.5,0.6,3.7v10.5h-2.8v-10.5c0.1-1.1-0.2-2.2-0.9-3.1c-0.7-0.7-1.6-1.1-2.6-1c-0.8,0-1.6,0.2-2.3,0.7
			c-0.7,0.4-1.3,1-1.6,1.8c-0.4,1-0.5,2-0.5,3.1v9.1L47,136.3z"/>
		<path class="st2" d="M75.6,134.2c-0.9,0.8-1.9,1.4-3,1.9c-1,0.4-2,0.5-3.1,0.5c-1.5,0.1-3-0.4-4.2-1.3c-1-0.9-1.5-2.1-1.5-3.4
			c0-1.5,0.7-3,2-3.8c0.6-0.4,1.3-0.7,2-0.9c0.8-0.2,1.7-0.3,2.5-0.4c1.7-0.2,3.4-0.5,5-1c0-0.4,0-0.6,0-0.7
			c0.1-0.9-0.2-1.8-0.8-2.4c-0.9-0.7-2.1-1-3.2-0.9c-1-0.1-2,0.2-2.9,0.7c-0.7,0.6-1.2,1.5-1.4,2.5l-2.8-0.4c0.2-1,0.6-2,1.2-2.8
			c0.7-0.8,1.5-1.4,2.5-1.7c1.2-0.4,2.5-0.6,3.8-0.6c1.2,0,2.3,0.1,3.4,0.5c0.8,0.2,1.5,0.7,2,1.3c0.5,0.6,0.8,1.3,0.9,2
			c0.1,0.9,0.2,1.7,0.1,2.6v3.8c0,1.7,0,3.3,0.2,5c0.1,0.7,0.4,1.4,0.7,2h-2.9C75.9,135.7,75.7,134.9,75.6,134.2z M75.4,127.9
			c-1.5,0.5-3,0.9-4.6,1.1c-0.8,0.1-1.7,0.3-2.5,0.6c-0.5,0.2-0.8,0.5-1.1,0.9c-0.7,1-0.5,2.4,0.5,3.2c0.7,0.5,1.6,0.8,2.5,0.8
			c1,0,2-0.2,2.9-0.7c0.8-0.5,1.5-1.2,1.9-2c0.3-0.9,0.5-1.8,0.5-2.7V127.9z"/>
		<path class="st2" d="M88.7,133.7l0.4,2.5c-0.7,0.2-1.4,0.2-2.1,0.2c-0.8,0-1.6-0.1-2.4-0.5c-0.5-0.3-0.9-0.7-1.2-1.3
			c-0.3-1.1-0.4-2.2-0.3-3.3v-9.5h-2.1v-2.2h2.1v-4.1l2.8-1.7v5.8h2.8v2.2h-2.8v9.7c0,0.5,0,1,0.1,1.6c0.1,0.2,0.3,0.4,0.5,0.6
			c0.3,0.2,0.7,0.2,1,0.2C87.9,133.8,88.3,133.8,88.7,133.7z"/>
		<path class="st2" d="M103.4,136.3l-5.1-16.6h2.9l2.7,9.6l1,3.6c0-0.2,0.3-1.3,0.9-3.4l2.6-9.7h2.9l2.5,9.6l0.8,3.2l1-3.2l2.8-9.6
			h2.7l-5.2,16.6h-3l-2.6-9.9l-0.6-2.8l-3.4,12.8L103.4,136.3z"/>
		<path class="st2" d="M123.5,116.6v-3.2h2.8v3.2H123.5z M123.5,136.3v-16.6h2.8v16.6L123.5,136.3z"/>
		<path class="st2" d="M136.7,133.7l0.4,2.5c-0.7,0.2-1.4,0.2-2.1,0.2c-0.8,0-1.6-0.1-2.4-0.5c-0.5-0.3-0.9-0.7-1.2-1.3
			c-0.3-1.1-0.4-2.2-0.3-3.3v-9.5h-2.1v-2.2h2.1v-4.1l2.8-1.7v5.8h2.8v2.2h-2.8v9.7c0,0.5,0,1,0.1,1.6c0.1,0.2,0.3,0.4,0.5,0.6
			c0.3,0.2,0.7,0.2,1,0.2C135.9,133.8,136.3,133.8,136.7,133.7z"/>
		<path class="st2" d="M139.5,136.3v-22.9h2.8v8.2c1.2-1.5,3.1-2.3,5-2.3c1.1,0,2.2,0.2,3.2,0.7c0.9,0.4,1.5,1.1,1.9,2
			c0.4,1.2,0.6,2.5,0.6,3.7v10.5h-2.9v-10.5c0.1-1.1-0.2-2.2-0.9-3.1c-0.7-0.7-1.6-1-2.6-1c-0.8,0-1.6,0.2-2.4,0.7
			c-0.7,0.4-1.3,1-1.6,1.8c-0.3,1-0.5,2-0.5,3.1v9.1L139.5,136.3z"/>
		<path class="st2" d="M165.1,128c0-3.1,0.9-5.3,2.6-6.8c1.5-1.2,3.3-1.9,5.2-1.8c2.1-0.1,4.1,0.7,5.6,2.2c1.5,1.7,2.3,3.9,2.2,6.2
			c0.1,1.7-0.3,3.4-1,5c-0.6,1.2-1.6,2.2-2.8,2.9c-1.2,0.7-2.6,1-4,1c-2.1,0.1-4.2-0.7-5.6-2.2C165.7,132.6,165,130.3,165.1,128z
			 M168,128c-0.1,1.7,0.4,3.4,1.4,4.8c1.7,1.9,4.6,2.1,6.5,0.5c0.2-0.1,0.3-0.3,0.5-0.5c1-1.4,1.5-3.1,1.4-4.9
			c0.1-1.7-0.4-3.3-1.4-4.7c-1.7-1.9-4.6-2.1-6.5-0.5c-0.2,0.1-0.3,0.3-0.5,0.5C168.4,124.6,167.9,126.3,168,128L168,128z"/>
		<path class="st2" d="M194.9,136.3v-2.4c-1.1,1.8-3.1,2.9-5.3,2.8c-0.9,0-1.9-0.2-2.8-0.6c-0.7-0.3-1.4-0.8-1.9-1.4
			c-0.4-0.6-0.7-1.3-0.9-2.1c-0.1-0.9-0.2-1.7-0.2-2.6v-10.3h2.8v9.2c0,1,0,2,0.2,3c0.2,0.7,0.5,1.3,1.1,1.7
			c0.6,0.4,1.4,0.7,2.1,0.6c0.8,0,1.7-0.2,2.4-0.6c0.7-0.4,1.3-1,1.6-1.8c0.4-1,0.5-2.1,0.5-3.2v-8.9h2.8v16.6H194.9z"/>
		<path class="st2" d="M201.7,136.3v-16.6h2.5v2.5c0.4-0.9,1-1.7,1.8-2.3c0.5-0.4,1.2-0.6,1.8-0.6c1,0,2,0.3,2.9,0.9l-1,2.6
			c-0.6-0.4-1.3-0.6-2.1-0.6c-0.6,0-1.2,0.2-1.7,0.6c-0.5,0.4-0.8,0.9-1,1.5c-0.3,1.1-0.5,2.2-0.5,3.3v8.7H201.7z"/>
		<path class="st2" d="M319.7,186.4v-28.8h3.3v28.8H319.7z"/>
		<path class="st3" d="M336.5,179.9v-22h7.6c1.3,0,2.6,0.1,3.9,0.3c1.2,0.3,2.3,0.8,3.2,1.6c1.2,1,2.1,2.3,2.6,3.8
			c0.6,1.7,0.9,3.4,0.9,5.2c0,1.5-0.2,3-0.6,4.4c-0.3,1.1-0.8,2.2-1.5,3.2c-1.1,1.6-2.7,2.7-4.6,3.1c-1.2,0.3-2.3,0.4-3.5,0.4
			L336.5,179.9z M339.5,177.3h4.7c1.1,0,2.3-0.1,3.4-0.4c0.7-0.2,1.4-0.6,2-1.1c0.7-0.8,1.3-1.7,1.6-2.8c0.4-1.4,0.6-2.8,0.6-4.2
			c0.1-1.8-0.3-3.7-1.1-5.3c-0.6-1.1-1.6-2-2.8-2.5c-1.2-0.4-2.5-0.5-3.8-0.4h-4.6L339.5,177.3z"/>
		<path class="st3" d="M358.4,161v-3.1h2.7v3.1H358.4z M358.4,179.9V164h2.7v15.9L358.4,179.9z"/>
		<path class="st3" d="M364.7,181.2l2.6,0.4c0,0.7,0.4,1.3,0.9,1.8c0.8,0.5,1.8,0.8,2.7,0.7c1,0.1,2-0.2,2.9-0.7
			c0.7-0.5,1.2-1.3,1.4-2.1c0.2-1.1,0.3-2.3,0.2-3.5c-1.1,1.3-2.7,2.1-4.4,2.1c-2,0.1-3.9-0.8-5.1-2.4c-1.2-1.6-1.8-3.6-1.8-5.7
			c0-1.4,0.3-2.9,0.8-4.2c0.5-1.2,1.3-2.3,2.4-3c1.1-0.7,2.4-1,3.7-1c1.8,0,3.5,0.8,4.6,2.3V164h2.5v13.8c0.1,1.8-0.1,3.6-0.8,5.3
			c-0.5,1.1-1.4,1.9-2.4,2.4c-1.2,0.6-2.6,0.9-4,0.9c-1.6,0.1-3.2-0.4-4.6-1.3C365.2,184.2,364.5,182.7,364.7,181.2z M366.9,171.7
			c-0.1,1.6,0.3,3.2,1.2,4.6c1.5,1.7,4.1,1.9,5.8,0.4c0.2-0.1,0.3-0.3,0.4-0.4c0.9-1.3,1.4-2.9,1.3-4.5c0.1-1.6-0.3-3.1-1.3-4.4
			c-0.8-0.9-1.9-1.5-3.1-1.5c-1.2,0-2.3,0.5-3,1.5C367.3,168.5,366.8,170.1,366.9,171.7L366.9,171.7z"/>
		<path class="st3" d="M382.3,161v-3.1h2.7v3.1H382.3z M382.3,179.9V164h2.7v15.9L382.3,179.9z"/>
		<path class="st3" d="M395,177.5l0.4,2.4c-0.7,0.1-1.3,0.2-2,0.2c-0.8,0-1.6-0.1-2.3-0.5c-0.5-0.3-0.9-0.7-1.1-1.2
			c-0.3-1-0.4-2.1-0.3-3.2v-9.1h-2V164h2v-4l2.7-1.6v5.6h2.7v2.1h-2.7v9.3c0,0.5,0,1,0.1,1.5c0.1,0.2,0.3,0.4,0.5,0.5
			c0.3,0.1,0.6,0.2,0.9,0.2C394.2,177.6,394.6,177.5,395,177.5z"/>
		<path class="st3" d="M408,177.9c-0.9,0.8-1.8,1.4-2.9,1.8c-1,0.4-2,0.5-3,0.5c-1.4,0.1-2.9-0.4-4-1.3c-0.9-0.8-1.4-2-1.4-3.3
			c0-0.7,0.2-1.5,0.5-2.1c0.3-0.6,0.8-1.2,1.4-1.6c0.6-0.4,1.2-0.7,1.9-0.9c0.8-0.2,1.6-0.3,2.4-0.4c1.6-0.1,3.2-0.5,4.8-0.9
			c0-0.4,0-0.6,0-0.7c0.1-0.8-0.2-1.7-0.8-2.3c-0.9-0.7-2-1-3.1-0.9c-1-0.1-2,0.2-2.8,0.7c-0.7,0.6-1.2,1.4-1.3,2.4l-2.6-0.4
			c0.2-1,0.6-1.9,1.2-2.7c0.6-0.8,1.5-1.3,2.4-1.6c1.2-0.4,2.4-0.6,3.6-0.6c1.1,0,2.2,0.1,3.3,0.5c0.7,0.2,1.4,0.6,1.9,1.2
			c0.4,0.5,0.7,1.2,0.8,1.8c0.1,0.8,0.2,1.7,0.1,2.5v3.6c0,1.6,0,3.2,0.2,4.8c0.1,0.7,0.3,1.3,0.7,1.9h-2.8
			C408.2,179.3,408.1,178.6,408,177.9z M407.8,171.9c-1.4,0.5-2.9,0.8-4.4,1c-0.8,0.1-1.6,0.3-2.3,0.5c-0.4,0.2-0.8,0.5-1.1,0.9
			c-0.2,0.4-0.4,0.8-0.4,1.3c0,0.7,0.3,1.4,0.8,1.8c0.7,0.5,1.5,0.8,2.4,0.7c1,0,1.9-0.2,2.8-0.7c0.8-0.4,1.4-1.1,1.8-1.9
			c0.3-0.9,0.5-1.8,0.4-2.7L407.8,171.9z"/>
		<path class="st3" d="M414.6,179.9v-22h2.7v22H414.6z"/>
		<path class="st3" d="M446,172.2l2.9,0.7c-0.5,2.1-1.6,4.1-3.3,5.5c-1.7,1.3-3.7,1.9-5.8,1.9c-2,0.1-4-0.4-5.8-1.4
			c-1.5-1-2.7-2.5-3.4-4.2c-0.8-1.9-1.2-3.9-1.2-5.9c0-2.1,0.4-4.1,1.3-6c0.8-1.6,2.1-3,3.7-3.9c1.6-0.9,3.5-1.4,5.3-1.3
			c2-0.1,3.9,0.5,5.5,1.7c1.5,1.2,2.6,2.8,3.1,4.7l-2.9,0.7c-0.4-1.4-1.1-2.6-2.2-3.5c-1.1-0.8-2.4-1.2-3.7-1.1
			c-1.5-0.1-3,0.4-4.2,1.2c-1.1,0.8-2,1.9-2.4,3.3c-0.5,1.4-0.7,2.8-0.7,4.2c0,1.7,0.2,3.3,0.8,4.9c0.5,1.3,1.4,2.4,2.5,3.1
			c1.1,0.7,2.4,1,3.7,1c1.5,0,3-0.5,4.1-1.4C444.9,175.2,445.7,173.8,446,172.2z"/>
		<path class="st3" d="M451.1,171.9c0-2.9,0.8-5.1,2.5-6.5c1.4-1.2,3.2-1.8,5-1.8c2-0.1,4,0.7,5.4,2.1c1.5,1.6,2.2,3.8,2.1,5.9
			c0.1,1.7-0.2,3.3-0.9,4.8c-0.6,1.2-1.5,2.1-2.7,2.7c-1.2,0.7-2.5,1-3.9,1c-2,0.1-4-0.7-5.4-2.1C451.7,176.4,451,174.2,451.1,171.9
			z M453.9,171.9c-0.1,1.6,0.4,3.3,1.3,4.6c1.6,1.8,4.4,2,6.2,0.4c0.2-0.1,0.3-0.3,0.4-0.4c1-1.3,1.5-3,1.3-4.7
			c0.1-1.6-0.4-3.2-1.3-4.5c-1.6-1.8-4.4-2-6.3-0.4c-0.2,0.1-0.3,0.3-0.4,0.4C454.3,168.7,453.8,170.3,453.9,171.9z"/>
		<path class="st3" d="M469.2,179.9V164h2.4v2.3c1.1-1.7,3-2.7,5.1-2.6c0.9,0,1.8,0.2,2.6,0.5c0.7,0.3,1.3,0.7,1.8,1.4
			c0.4,0.6,0.7,1.3,0.8,2c0.1,0.9,0.2,1.7,0.1,2.6v9.8h-2.7v-9.7c0-0.8-0.1-1.7-0.3-2.5c-0.2-0.5-0.6-1-1.1-1.3
			c-0.6-0.3-1.2-0.5-1.9-0.5c-1.1,0-2.2,0.4-3,1.1c-0.8,0.7-1.2,2.1-1.2,4.1v8.7L469.2,179.9z"/>
		<path class="st3" d="M496.7,174.1l2.6,0.4c-0.2,1.7-1,3.2-2.2,4.3c-1.2,1-2.8,1.6-4.4,1.6c-2,0.1-3.9-0.7-5.3-2.1
			c-1.4-1.7-2.1-3.9-2-6.1c0-1.5,0.3-3.1,0.9-4.5c0.5-1.2,1.4-2.2,2.6-2.9c1.2-0.7,2.5-1,3.8-1c1.5-0.1,3,0.4,4.2,1.3
			c1.1,0.9,1.9,2.3,2.1,3.7l-2.6,0.4c-0.2-0.9-0.6-1.8-1.3-2.4c-0.6-0.5-1.5-0.8-2.3-0.8c-1.3,0-2.5,0.5-3.3,1.5
			c-1,1.3-1.4,3-1.3,4.6c-0.1,1.6,0.3,3.3,1.2,4.7c0.8,1,2,1.5,3.2,1.4c1,0,1.9-0.3,2.6-1C496.1,176.2,496.6,175.2,496.7,174.1z"/>
		<path class="st3" d="M501.6,161v-3.1h2.7v3.1H501.6z M501.6,179.9V164h2.7v15.9L501.6,179.9z"/>
		<path class="st3" d="M519.3,174.8l2.8,0.3c-0.4,1.5-1.2,2.8-2.4,3.8c-1.3,0.9-2.9,1.4-4.6,1.4c-2.1,0.1-4.1-0.7-5.5-2.1
			c-1.4-1.7-2.2-3.8-2-6c-0.1-2.3,0.6-4.5,2.1-6.2c1.4-1.5,3.3-2.3,5.4-2.2c2-0.1,3.9,0.7,5.2,2.2c1.4,1.7,2.1,3.9,2,6.1
			c0,0.2,0,0.4,0,0.7h-11.9c0,1.5,0.5,2.9,1.5,4c0.9,0.9,2.1,1.4,3.3,1.4c0.9,0,1.8-0.2,2.5-0.8C518.4,176.6,519,175.7,519.3,174.8z
			 M510.5,170.4h8.9c0-1.1-0.4-2.1-1-3c-0.8-1-2-1.6-3.3-1.6c-1.2,0-2.3,0.4-3.1,1.2C511,168,510.5,169.2,510.5,170.4z"/>
		<path class="st3" d="M525.5,179.9V164h2.4v2.4c0.4-0.9,1-1.6,1.7-2.2c0.5-0.4,1.1-0.5,1.7-0.5c1,0,1.9,0.3,2.8,0.9l-0.9,2.5
			c-0.6-0.4-1.3-0.6-2-0.6c-0.6,0-1.1,0.2-1.6,0.5c-0.5,0.4-0.8,0.9-1,1.5c-0.3,1-0.5,2.1-0.4,3.1v8.3L525.5,179.9z"/>
		<path class="st3" d="M535.2,181.2l2.6,0.4c0,0.7,0.4,1.3,0.9,1.8c0.8,0.5,1.8,0.8,2.7,0.7c1,0.1,2-0.2,2.9-0.7
			c0.7-0.5,1.2-1.3,1.4-2.1c0.2-1.1,0.3-2.3,0.2-3.5c-1.1,1.3-2.7,2.1-4.4,2.1c-2,0.1-3.9-0.8-5.1-2.4c-1.2-1.6-1.9-3.6-1.8-5.7
			c0-1.4,0.3-2.9,0.8-4.2c0.5-1.2,1.3-2.3,2.4-3c1.1-0.7,2.4-1,3.7-1c1.8,0,3.5,0.8,4.6,2.3V164h2.5v13.8c0.1,1.8-0.1,3.6-0.8,5.3
			c-0.5,1-1.4,1.9-2.4,2.4c-1.2,0.6-2.6,0.9-4,0.9c-1.6,0.1-3.2-0.4-4.6-1.3C535.7,184.2,535.1,182.7,535.2,181.2z M537.5,171.7
			c-0.1,1.6,0.3,3.2,1.2,4.6c1.5,1.7,4.1,1.9,5.8,0.4c0.2-0.1,0.3-0.3,0.4-0.4c0.9-1.3,1.4-2.9,1.3-4.5c0.1-1.6-0.3-3.1-1.3-4.4
			c-0.8-0.9-1.9-1.5-3.1-1.5c-1.2,0-2.3,0.5-3,1.5C537.8,168.6,537.3,170.1,537.5,171.7L537.5,171.7z"/>
		<path class="st3" d="M563.7,174.8l2.8,0.3c-0.4,1.5-1.2,2.8-2.5,3.8c-3.2,2.1-7.3,1.7-10.1-0.8c-1.4-1.7-2.1-3.8-2-6
			c-0.1-2.3,0.6-4.5,2.1-6.2c1.4-1.5,3.3-2.3,5.4-2.2c2-0.1,3.9,0.7,5.2,2.2c1.4,1.7,2.1,3.9,2,6.1c0,0.2,0,0.4,0,0.7h-11.9
			c0,1.5,0.5,2.9,1.5,4c0.9,0.9,2.1,1.4,3.3,1.4c0.9,0,1.8-0.2,2.5-0.8C562.8,176.6,563.4,175.7,563.7,174.8z M554.8,170.4h8.9
			c0-1.1-0.4-2.1-1-3c-0.8-1-2-1.6-3.3-1.6c-1.2,0-2.3,0.4-3.1,1.2C555.4,168,554.9,169.2,554.8,170.4L554.8,170.4z"/>
	</g>
</g>
<g>
	<path class="st2" d="M24.6,155.9h5.8l8.5,14.6v-14.6h4.5v22.2h-5l-9.3-15.8v15.8h-4.5V155.9z"/>
	<path class="st2" d="M55.5,178.4c-1.2,0-2.4-0.2-3.4-0.6s-1.9-0.9-2.7-1.6c-0.8-0.7-1.4-1.6-1.8-2.6c-0.4-1-0.6-2.2-0.6-3.5v-0.2
		c0-1.3,0.2-2.4,0.6-3.5c0.4-1,1-1.9,1.8-2.7c0.7-0.7,1.6-1.3,2.6-1.7c1-0.4,2.1-0.6,3.3-0.6c1.1,0,2.1,0.2,3,0.5s1.8,0.8,2.5,1.5
		c0.7,0.7,1.3,1.5,1.7,2.6c0.4,1,0.7,2.3,0.7,3.7v1.2H51.5c0.1,1.4,0.4,2.4,1.1,3.2c0.7,0.7,1.7,1.1,2.9,1.1c1.1,0,1.9-0.2,2.4-0.6
		c0.5-0.4,0.9-1,1-1.6h4.3c-0.3,1.8-1.1,3.1-2.4,4.1C59.5,178,57.7,178.4,55.5,178.4z M58.9,168.2c-0.1-1.2-0.4-2.2-1-2.8
		c-0.6-0.6-1.4-0.9-2.5-0.9c-1,0-1.9,0.3-2.5,0.9c-0.7,0.6-1.1,1.5-1.2,2.7H58.9z"/>
	<path class="st2" d="M64.8,161.8h4.7l2.9,10.9l3.1-10.9h3.7l2.9,10.9l3.1-10.9h4.3l-5.1,16.3H80l-2.8-10.2l-3,10.2h-4.5L64.8,161.8
		z"/>
	<path class="st2" d="M98.2,178.4c-2.2,0-3.9-0.5-5.1-1.4c-1.2-0.9-1.9-2.3-2-4h4.2c0.1,0.7,0.4,1.3,0.8,1.7
		c0.4,0.4,1.1,0.6,2.1,0.6c0.9,0,1.5-0.2,1.9-0.5c0.4-0.3,0.6-0.8,0.6-1.3s-0.3-1-0.8-1.3c-0.5-0.3-1.4-0.5-2.5-0.7
		c-1.1-0.2-2-0.4-2.8-0.6c-0.8-0.2-1.4-0.6-1.9-1c-0.5-0.4-0.9-0.9-1.1-1.4c-0.2-0.6-0.3-1.2-0.3-2c0-0.8,0.2-1.6,0.5-2.2
		c0.4-0.6,0.8-1.2,1.4-1.6c0.6-0.4,1.3-0.7,2-0.9s1.6-0.3,2.4-0.3c0.9,0,1.7,0.1,2.5,0.3s1.5,0.5,2.1,0.9c0.6,0.4,1.1,0.9,1.4,1.6
		c0.4,0.6,0.6,1.4,0.7,2.4h-4.1c-0.1-0.7-0.4-1.1-0.8-1.5c-0.4-0.3-1-0.5-1.8-0.5c-0.7,0-1.3,0.2-1.7,0.5c-0.4,0.3-0.6,0.7-0.6,1.2
		c0,0.5,0.2,0.9,0.7,1.1c0.5,0.2,1.3,0.5,2.5,0.6c1,0.1,1.9,0.3,2.7,0.6c0.8,0.2,1.5,0.5,2,0.9c0.5,0.4,0.9,0.9,1.2,1.5
		c0.3,0.6,0.4,1.3,0.4,2.2c0,1.8-0.6,3.1-1.8,4C102.1,178,100.4,178.4,98.2,178.4z"/>
	<path class="st2" d="M131.7,173.6l3.7,4.5h-5.8l-1.6-2c-0.7,0.6-1.5,1.2-2.5,1.6c-1,0.4-2.1,0.7-3.6,0.7c-1.1,0-2.1-0.2-3.1-0.5
		c-0.9-0.3-1.7-0.7-2.4-1.3c-0.7-0.6-1.2-1.2-1.5-2s-0.5-1.7-0.5-2.7c0-1.5,0.4-2.8,1.3-3.9c0.9-1,2.1-1.9,3.6-2.7
		c-0.5-0.7-0.9-1.5-1.2-2.2c-0.2-0.7-0.4-1.4-0.4-2c0-0.9,0.2-1.7,0.5-2.4c0.4-0.7,0.8-1.3,1.4-1.8c0.6-0.5,1.3-0.8,2.1-1
		c0.8-0.2,1.6-0.4,2.5-0.4c0.8,0,1.6,0.1,2.3,0.3c0.7,0.2,1.4,0.5,1.9,0.9c0.6,0.4,1,1,1.3,1.6c0.3,0.6,0.5,1.3,0.5,2.1
		c0,1.3-0.4,2.4-1.2,3.3c-0.8,0.9-1.9,1.7-3.4,2.3l3.5,4.3l2-3.9h4L131.7,173.6z M122.6,174.7c0.6,0,1.2-0.1,1.7-0.4
		c0.5-0.2,1-0.6,1.4-1.1l-4.2-5.2c-0.7,0.4-1.2,0.8-1.6,1.3c-0.4,0.5-0.7,1.2-0.7,2.1c0,1,0.3,1.8,0.9,2.4
		C120.7,174.4,121.5,174.7,122.6,174.7z M122.2,161.2c0,0.5,0.1,1,0.4,1.4c0.3,0.5,0.6,1,1.1,1.5c0.9-0.4,1.6-0.9,2-1.4
		c0.4-0.5,0.6-1.2,0.6-1.9c0-0.6-0.2-1.1-0.5-1.4c-0.4-0.4-0.8-0.6-1.4-0.6c-0.6,0-1.1,0.2-1.6,0.6
		C122.4,159.8,122.2,160.4,122.2,161.2z"/>
	<path class="st2" d="M145.7,155.9h7.7c2.7,0,4.8,0.6,6.3,1.8c1.5,1.2,2.2,3,2.2,5.3v0.1c0,1.2-0.2,2.2-0.6,3.1
		c-0.4,0.9-1,1.6-1.7,2.2c-0.7,0.6-1.6,1-2.6,1.3c-1,0.3-2.2,0.4-3.4,0.4h-2.8v8.1h-5V155.9z M153.3,166.5c1.3,0,2.2-0.3,2.8-0.9
		c0.6-0.6,0.9-1.4,0.9-2.5V163c0-1.2-0.3-2-1-2.5c-0.7-0.5-1.6-0.8-2.8-0.8h-2.5v6.8H153.3z"/>
	<path class="st2" d="M170.6,178.4c-0.8,0-1.5-0.1-2.2-0.4c-0.7-0.2-1.3-0.6-1.8-1.1c-0.5-0.5-0.9-1.1-1.2-1.9s-0.4-1.7-0.4-2.8
		v-10.5h4.5v9.9c0,1.1,0.2,1.9,0.7,2.4c0.5,0.5,1.2,0.8,2.1,0.8c1,0,1.8-0.3,2.4-0.9c0.7-0.6,1-1.5,1-2.7v-9.5h4.5v16.3h-4.5v-2.5
		c-0.4,0.8-1,1.5-1.9,2.1C173,178.2,171.9,178.4,170.6,178.4z"/>
	<path class="st2" d="M194.3,178.4c-1.3,0-2.3-0.3-3.2-0.8c-0.9-0.5-1.5-1.2-2-2.1v2.6h-4.5v-23.6h4.5v9.9c0.5-0.8,1.1-1.5,2-2.1
		c0.9-0.6,2-0.9,3.2-0.9c1,0,1.9,0.2,2.8,0.5c0.9,0.4,1.6,0.9,2.3,1.6c0.6,0.7,1.1,1.6,1.5,2.6c0.4,1,0.5,2.2,0.5,3.6v0.2
		c0,1.3-0.2,2.5-0.5,3.6c-0.4,1-0.9,1.9-1.5,2.6c-0.6,0.7-1.4,1.3-2.3,1.6C196.2,178.3,195.3,178.4,194.3,178.4z M192.9,174.9
		c1.2,0,2.2-0.4,2.9-1.2c0.7-0.8,1-2,1-3.6v-0.2c0-1.7-0.4-2.9-1.1-3.7c-0.7-0.8-1.7-1.2-2.8-1.2c-1.2,0-2.1,0.4-2.9,1.2
		c-0.7,0.8-1.1,2.1-1.1,3.7v0.2c0,1.6,0.4,2.9,1.1,3.7S191.7,174.9,192.9,174.9z"/>
	<path class="st2" d="M204.9,154.5h4.5v23.6h-4.5V154.5z"/>
	<path class="st2" d="M216.2,159.6c-0.7,0-1.3-0.2-1.8-0.7c-0.5-0.5-0.7-1.1-0.7-1.8c0-0.7,0.2-1.3,0.7-1.8c0.5-0.5,1.1-0.7,1.8-0.7
		s1.3,0.2,1.8,0.7c0.5,0.5,0.7,1.1,0.7,1.8c0,0.7-0.2,1.3-0.7,1.8C217.5,159.4,216.9,159.6,216.2,159.6z M214,161.8h4.5v16.3H214
		V161.8z"/>
	<path class="st2" d="M228.8,178.4c-2.2,0-3.9-0.5-5.1-1.4c-1.2-0.9-1.9-2.3-2-4h4.2c0.1,0.7,0.4,1.3,0.8,1.7
		c0.4,0.4,1.1,0.6,2.1,0.6c0.9,0,1.5-0.2,1.9-0.5c0.4-0.3,0.6-0.8,0.6-1.3s-0.3-1-0.8-1.3c-0.5-0.3-1.4-0.5-2.5-0.7
		c-1.1-0.2-2-0.4-2.8-0.6s-1.4-0.6-1.9-1c-0.5-0.4-0.9-0.9-1.1-1.4c-0.2-0.6-0.3-1.2-0.3-2c0-0.8,0.2-1.6,0.5-2.2
		c0.4-0.6,0.8-1.2,1.4-1.6c0.6-0.4,1.3-0.7,2-0.9s1.6-0.3,2.4-0.3c0.9,0,1.7,0.1,2.5,0.3s1.5,0.5,2.1,0.9c0.6,0.4,1.1,0.9,1.4,1.6
		c0.4,0.6,0.6,1.4,0.7,2.4h-4.1c-0.1-0.7-0.4-1.1-0.8-1.5c-0.4-0.3-1-0.5-1.8-0.5c-0.7,0-1.3,0.2-1.7,0.5c-0.4,0.3-0.6,0.7-0.6,1.2
		c0,0.5,0.2,0.9,0.7,1.1c0.5,0.2,1.3,0.5,2.5,0.6c1,0.1,1.9,0.3,2.7,0.6c0.8,0.2,1.5,0.5,2,0.9c0.5,0.4,0.9,0.9,1.2,1.5
		c0.3,0.6,0.4,1.3,0.4,2.2c0,1.8-0.6,3.1-1.8,4C232.7,178,231,178.4,228.8,178.4z"/>
	<path class="st2" d="M238.9,154.5h4.5v10c0.4-0.8,1.1-1.5,1.9-2.1c0.9-0.6,2-0.9,3.4-0.9c0.8,0,1.5,0.1,2.2,0.4
		c0.7,0.2,1.2,0.6,1.7,1.1c0.5,0.5,0.8,1.2,1.1,2s0.4,1.7,0.4,2.8v10.4h-4.5v-9.7c0-1.1-0.2-1.9-0.7-2.5c-0.5-0.5-1.2-0.8-2.2-0.8
		c-1,0-1.8,0.3-2.4,0.9s-1,1.5-1,2.7v9.4h-4.5V154.5z"/>
	<path class="st2" d="M260.8,159.6c-0.7,0-1.3-0.2-1.8-0.7c-0.5-0.5-0.7-1.1-0.7-1.8c0-0.7,0.2-1.3,0.7-1.8c0.5-0.5,1.1-0.7,1.8-0.7
		c0.7,0,1.3,0.2,1.8,0.7c0.5,0.5,0.7,1.1,0.7,1.8c0,0.7-0.2,1.3-0.7,1.8C262.1,159.4,261.5,159.6,260.8,159.6z M258.5,161.8h4.5
		v16.3h-4.5V161.8z"/>
	<path class="st2" d="M267.5,161.8h4.5v2.6c0.4-0.8,1.1-1.5,1.9-2.1c0.9-0.6,2-0.9,3.4-0.9c0.8,0,1.5,0.1,2.2,0.4
		c0.7,0.2,1.2,0.6,1.7,1.1c0.5,0.5,0.9,1.2,1.1,2c0.3,0.8,0.4,1.7,0.4,2.8v10.4h-4.5v-9.7c0-1.1-0.2-1.9-0.7-2.5
		c-0.5-0.5-1.2-0.8-2.2-0.8c-1,0-1.8,0.3-2.4,0.9s-1,1.5-1,2.7v9.4h-4.5V161.8z"/>
	<path class="st2" d="M294.2,184.1c-1.3,0-2.4-0.1-3.4-0.4c-1-0.3-1.8-0.7-2.4-1.2c-0.7-0.5-1.2-1.1-1.5-1.8
		c-0.4-0.7-0.6-1.5-0.7-2.3h4.5c0.1,0.7,0.5,1.3,1,1.7c0.5,0.4,1.4,0.6,2.6,0.6c1.4,0,2.4-0.3,3.1-1s1-1.7,1-3v-2.5
		c-0.2,0.4-0.5,0.8-0.9,1.1s-0.7,0.7-1.2,1c-0.5,0.3-0.9,0.5-1.5,0.7c-0.5,0.2-1.1,0.3-1.7,0.3c-1,0-1.9-0.2-2.8-0.5
		c-0.9-0.4-1.6-0.9-2.2-1.5c-0.6-0.7-1.2-1.5-1.5-2.4c-0.4-1-0.6-2-0.6-3.2v-0.2c0-1.2,0.2-2.2,0.5-3.2c0.4-1,0.9-1.8,1.5-2.5
		c0.6-0.7,1.4-1.2,2.3-1.6c0.9-0.4,1.8-0.6,2.8-0.6c1.3,0,2.4,0.3,3.2,0.8c0.8,0.5,1.5,1.2,1.9,2v-2.4h4.5v15c0,2.4-0.8,4.2-2.3,5.5
		S296.9,184.1,294.2,184.1z M294.5,174c1.2,0,2.1-0.4,2.9-1.2c0.7-0.8,1.1-1.9,1.1-3.3v-0.2c0-1.4-0.3-2.5-1-3.3
		c-0.7-0.8-1.6-1.2-2.9-1.2c-1.3,0-2.2,0.4-2.9,1.2s-1,1.9-1,3.2v0.2c0,1.4,0.4,2.4,1.1,3.2S293.3,174,294.5,174z"/>
</g>
</svg>
